<svg xmlns="http://www.w3.org/2000/svg" width="765.147" height="645.03" viewBox="0 0 765.147 645.03">
  <g id="Grupo_569" data-name="Grupo 569" transform="translate(2314.77 1265.592)">
    <g id="Grupo_562" data-name="Grupo 562" transform="translate(-2303.617 -1111.693)">
      <g id="Grupo_561" data-name="Grupo 561">
        <rect id="Retângulo_980" data-name="Retângulo 980" width="69.022" height="68.534" fill="#ff5630"/>
      </g>
    </g>
    <g id="Grupo_563" data-name="Grupo 563" transform="translate(-2200.573 -1123.089)">
      <rect id="Retângulo_981" data-name="Retângulo 981" width="129.119" height="22.79" fill="#616161"/>
    </g>
    <g id="Grupo_564" data-name="Grupo 564" transform="translate(-2314.77 -1265.592)">
      <path id="Caminho_876" data-name="Caminho 876" d="M-1743.707-683.659l-354.414-141.766a10.259,10.259,0,0,0-3.834-.738h-136.5a76.4,76.4,0,0,1-76.317-76.317v-106.412h22.791V-902.48a53.588,53.588,0,0,0,53.526,53.526h136.5a32.939,32.939,0,0,1,12.3,2.367L-1766.5-717.324v-514.6l-264.392,105.754a87.851,87.851,0,0,0-55.489,81.957v103.856h-22.791v-103.856a110.537,110.537,0,0,1,69.815-103.118l295.647-118.257Z" transform="translate(2314.771 1265.593)" fill="#616161"/>
    </g>
    <g id="Grupo_565" data-name="Grupo 565" transform="translate(-2245.991 -848.953)">
      <path id="Caminho_877" data-name="Caminho 877" d="M-2217.071-890.95h-21.765a51.852,51.852,0,0,1-51.791-51.794v-176.6h125.347v176.6A51.852,51.852,0,0,1-2217.071-890.95Zm-50.766-205.6v153.807a29.035,29.035,0,0,0,29,29h21.765a29.035,29.035,0,0,0,29-29v-153.807Z" transform="translate(2290.627 1119.342)" fill="#616161"/>
    </g>
    <g id="Grupo_566" data-name="Grupo 566" transform="translate(-1686.69 -986.021)">
      <rect id="Retângulo_982" data-name="Retângulo 982" width="137.067" height="22.79" fill="#ff5630"/>
    </g>
    <g id="Grupo_567" data-name="Grupo 567" transform="translate(-1694.744 -1216.676)">
      <rect id="Retângulo_983" data-name="Retângulo 983" width="137.067" height="22.79" transform="matrix(0.707, -0.707, 0.707, 0.707, 0, 96.929)" fill="#ff5630"/>
    </g>
    <g id="Grupo_568" data-name="Grupo 568" transform="translate(-1694.748 -845.615)">
      <rect id="Retângulo_984" data-name="Retângulo 984" width="22.79" height="137.067" transform="translate(0 16.115) rotate(-45)" fill="#ff5630"/>
    </g>
  </g>
</svg>
