<svg xmlns="http://www.w3.org/2000/svg" width="961.413" height="304.664" viewBox="0 0 961.413 304.664">
  <g id="Grupo_279" data-name="Grupo 279" transform="translate(1089.88 962.661)">
    <g id="Grupo_209" data-name="Grupo 209" transform="translate(-815.569 -962.661)">
      <g id="Grupo_205" data-name="Grupo 205" transform="translate(0 0.82)">
        <g id="Grupo_201" data-name="Grupo 201" transform="translate(22.384 28.78)">
          <path id="Caminho_265" data-name="Caminho 265" d="M-825.352-862.4H-876.2a8.676,8.676,0,0,1-8.667-8.666v-71.139h3.737v71.139a4.935,4.935,0,0,0,4.93,4.929h50.845Z" transform="translate(884.864 942.208)" fill="#fff"/>
        </g>
        <g id="Grupo_202" data-name="Grupo 202" transform="translate(103.07 28.78)">
          <rect id="Retângulo_449" data-name="Retângulo 449" width="3.735" height="53.916" fill="#fff"/>
        </g>
        <g id="Grupo_203" data-name="Grupo 203" transform="translate(126.605 44.246)">
          <path id="Caminho_266" data-name="Caminho 266" d="M-812.847-931.521" transform="translate(812.847 931.521)" fill="none" stroke="#333" stroke-linecap="square" stroke-miterlimit="10" stroke-width="2.582"/>
        </g>
        <g id="Grupo_204" data-name="Grupo 204">
          <path id="Caminho_267" data-name="Caminho 267" d="M-773.173-917.135l-62.564-40.508L-898.3-917.135l-2.031-3.136,64.594-41.824,64.594,41.824Z" transform="translate(900.331 962.095)" fill="#fff"/>
        </g>
      </g>
      <g id="Grupo_206" data-name="Grupo 206" transform="translate(92.324 95.444)">
        <rect id="Retângulo_450" data-name="Retângulo 450" width="14.35" height="14.35" fill="#ff5630"/>
      </g>
      <g id="Grupo_207" data-name="Grupo 207" transform="translate(37.793 59.364)">
        <path id="Caminho_268" data-name="Caminho 268" d="M-839.271-873.078h-3.82v-44.741H-870.4v44.741h-3.82v-48.562h34.946Z" transform="translate(874.216 921.641)" fill="#fff"/>
      </g>
      <g id="Grupo_208" data-name="Grupo 208" transform="translate(30.375)">
        <path id="Caminho_269" data-name="Caminho 269" d="M-875.605-950.034h-3.737v-12.628h14.931v6.969h-3.737v-3.232h-7.458Z" transform="translate(879.342 962.661)" fill="#ff5630"/>
      </g>
    </g>
    <g id="Grupo_222" data-name="Grupo 222" transform="translate(-524.895 -747.381)">
      <g id="Grupo_210" data-name="Grupo 210" transform="translate(0.268)">
        <rect id="Retângulo_451" data-name="Retângulo 451" width="14.792" height="14.679" fill="#ff5630"/>
      </g>
      <g id="Grupo_211" data-name="Grupo 211" transform="translate(24.33 0.267)">
        <path id="Caminho_270" data-name="Caminho 270" d="M-599.856-777.514l-27.9-27.389a17.639,17.639,0,0,0-12.425-5.078h-42.479v-3.737h42.479a21.349,21.349,0,0,1,15.042,6.149l27.9,27.389Z" transform="translate(682.663 813.718)" fill="#fff"/>
      </g>
      <g id="Grupo_212" data-name="Grupo 212" transform="translate(108.139 33.27)">
        <path id="Caminho_271" data-name="Caminho 271" d="M-614.684-753.566h-10.067V-757.3h10.067a4.079,4.079,0,0,0,4.074-4.075V-783.1a4.079,4.079,0,0,0-4.074-4.074h-9.76v-3.737h9.76a7.82,7.82,0,0,1,7.809,7.81v21.725A7.82,7.82,0,0,1-614.684-753.566Z" transform="translate(624.751 790.913)" fill="#fff"/>
      </g>
      <g id="Grupo_213" data-name="Grupo 213" transform="translate(38.248 66.88)">
        <rect id="Retângulo_452" data-name="Retângulo 452" width="48.663" height="3.737" fill="#fff"/>
      </g>
      <g id="Grupo_214" data-name="Grupo 214" transform="translate(0 23.039)">
        <path id="Caminho_272" data-name="Caminho 272" d="M-682.455-750.4h-11.893a5.134,5.134,0,0,1-5.127-5.127v-42.45h3.737v42.45a1.392,1.392,0,0,0,1.391,1.391h11.893Z" transform="translate(699.475 797.982)" fill="#fff"/>
      </g>
      <g id="Grupo_215" data-name="Grupo 215" transform="translate(63.508 18.246)">
        <path id="Caminho_273" data-name="Caminho 273" d="M-610.653-782.534H-644.39a11.215,11.215,0,0,1-11.2-11.2v-7.559h3.735v7.559a7.474,7.474,0,0,0,7.466,7.464h33.737Z" transform="translate(655.591 801.294)" fill="#fff"/>
      </g>
      <g id="Grupo_216" data-name="Grupo 216" transform="translate(15.152 56.267)">
        <path id="Caminho_274" data-name="Caminho 274" d="M-676.523-750.058a12.5,12.5,0,0,1-12.482-12.482,12.5,12.5,0,0,1,12.482-12.482,12.5,12.5,0,0,1,12.482,12.482A12.5,12.5,0,0,1-676.523-750.058Zm0-21.227a8.755,8.755,0,0,0-8.745,8.745,8.755,8.755,0,0,0,8.745,8.745,8.755,8.755,0,0,0,8.745-8.745A8.755,8.755,0,0,0-676.523-771.285Z" transform="translate(689.005 775.022)" fill="#fff"/>
      </g>
      <g id="Grupo_217" data-name="Grupo 217" transform="translate(85.043 56.267)">
        <path id="Caminho_275" data-name="Caminho 275" d="M-628.228-750.058A12.5,12.5,0,0,1-640.71-762.54a12.5,12.5,0,0,1,12.482-12.482,12.5,12.5,0,0,1,12.482,12.482A12.5,12.5,0,0,1-628.228-750.058Zm0-21.227a8.755,8.755,0,0,0-8.745,8.745,8.755,8.755,0,0,0,8.745,8.745,8.755,8.755,0,0,0,8.745-8.745A8.755,8.755,0,0,0-628.228-771.285Z" transform="translate(640.71 775.022)" fill="#fff"/>
      </g>
      <g id="Grupo_221" data-name="Grupo 221" transform="translate(121.491 17.872)">
        <g id="Grupo_218" data-name="Grupo 218">
          <rect id="Retângulo_453" data-name="Retângulo 453" width="3.735" height="9.288" fill="#ff5630"/>
        </g>
        <g id="Grupo_219" data-name="Grupo 219" transform="translate(10.652 16.404)">
          <rect id="Retângulo_454" data-name="Retângulo 454" width="9.289" height="3.737" fill="#ff5630"/>
        </g>
        <g id="Grupo_220" data-name="Grupo 220" transform="translate(6.413 4.088)">
          <rect id="Retângulo_455" data-name="Retângulo 455" width="9.753" height="3.736" transform="matrix(0.707, -0.707, 0.707, 0.707, 0, 6.895)" fill="#ff5630"/>
        </g>
      </g>
    </g>
    <g id="Grupo_227" data-name="Grupo 227" transform="translate(-523.242 -934.82)">
      <g id="Grupo_223" data-name="Grupo 223" transform="translate(51.491 60.974)">
        <rect id="Retângulo_456" data-name="Retângulo 456" width="72.811" height="3.737" fill="#00c5ff"/>
      </g>
      <g id="Grupo_224" data-name="Grupo 224" transform="translate(16.286 60.974)">
        <rect id="Retângulo_457" data-name="Retângulo 457" width="17.175" height="3.737" fill="#fff"/>
      </g>
      <g id="Grupo_225" data-name="Grupo 225">
        <path id="Caminho_276" data-name="Caminho 276" d="M-580.585-859.636H-689.912a8.431,8.431,0,0,1-8.421-8.423v-51.764h3.735v51.764a4.691,4.691,0,0,0,4.686,4.686h109.327a4.692,4.692,0,0,0,4.687-4.686V-935a4.691,4.691,0,0,0-4.687-4.685H-674.4v-3.737h93.813A8.431,8.431,0,0,1-572.162-935v66.944A8.432,8.432,0,0,1-580.585-859.636Z" transform="translate(698.333 943.423)" fill="#fff"/>
      </g>
      <g id="Grupo_226" data-name="Grupo 226" transform="translate(0.208 0.195)">
        <rect id="Retângulo_458" data-name="Retângulo 458" width="14.542" height="14.542" fill="#00c5ff"/>
      </g>
    </g>
    <g id="Grupo_235" data-name="Grupo 235" transform="translate(-250.202 -761.147)">
      <g id="Grupo_228" data-name="Grupo 228" transform="translate(0 5.906)">
        <path id="Caminho_277" data-name="Caminho 277" d="M-411.991-724.984h-85.641a12.045,12.045,0,0,1-12.03-12.032v-41.719a8.006,8.006,0,0,1,7.958-7.991l98.009.1V-807.3a8.3,8.3,0,0,0-8.3-8.3h-71.985v-3.737h71.985A12.046,12.046,0,0,1-399.959-807.3v70.286A12.046,12.046,0,0,1-411.991-724.984ZM-501.7-782.99a4.259,4.259,0,0,0-4.227,4.255v41.719a8.3,8.3,0,0,0,8.3,8.3h85.641a8.3,8.3,0,0,0,8.3-8.3v-45.871Z" transform="translate(509.662 819.334)" fill="#fff"/>
      </g>
      <g id="Grupo_229" data-name="Grupo 229" transform="translate(73.997)">
        <rect id="Retângulo_459" data-name="Retângulo 459" width="3.735" height="15.547" fill="#fff"/>
      </g>
      <g id="Grupo_230" data-name="Grupo 230" transform="translate(58.459)">
        <rect id="Retângulo_460" data-name="Retângulo 460" width="3.735" height="15.547" fill="#fff"/>
      </g>
      <g id="Grupo_231" data-name="Grupo 231" transform="translate(89.691)">
        <rect id="Retângulo_461" data-name="Retângulo 461" width="3.735" height="15.547" fill="#fff"/>
      </g>
      <g id="Grupo_232" data-name="Grupo 232" transform="translate(0.315 5.982)">
        <rect id="Retângulo_462" data-name="Retângulo 462" width="14.734" height="14.892" fill="#00c5ff"/>
      </g>
      <g id="Grupo_233" data-name="Grupo 233" transform="translate(37.443 55.886)">
        <path id="Caminho_278" data-name="Caminho 278" d="M-478.87-775.075l5.916-4.841h-10.022V-784.8h17.3v4.512l-5.916,4.585a7.184,7.184,0,0,1,6.728,7.318c0,4.255-3.509,8.1-9.425,8.1-5.585,0-9.133-3.584-9.5-7.692l5.621-1.032a3.755,3.755,0,0,0,3.844,3.768,3.311,3.311,0,0,0,3.589-3.291,3.193,3.193,0,0,0-3.478-3.253,4.8,4.8,0,0,0-2.143.556Z" transform="translate(483.789 784.798)" fill="#00c5ff"/>
      </g>
      <g id="Grupo_234" data-name="Grupo 234" transform="translate(58.862 55.886)">
        <path id="Caminho_279" data-name="Caminho 279" d="M-463.259-760.8v-15.6h-5.729v-3.88c3.585-.039,6.135-2.071,6.541-4.512h4.991v24Z" transform="translate(468.988 784.798)" fill="#00c5ff"/>
      </g>
    </g>
    <g id="Grupo_246" data-name="Grupo 246" transform="translate(-1089.88 -956.057)">
      <g id="Grupo_236" data-name="Grupo 236" transform="translate(104.299 90.635)">
        <path id="Caminho_280" data-name="Caminho 280" d="M-1017.809-895.469" transform="translate(1017.809 895.469)" fill="none" stroke="#333" stroke-miterlimit="10" stroke-width="2.582"/>
      </g>
      <g id="Grupo_241" data-name="Grupo 241" transform="translate(61.918)">
        <g id="Grupo_237" data-name="Grupo 237" transform="translate(39.66 34.752)">
          <path id="Caminho_281" data-name="Caminho 281" d="M-1002.9-902.03l-16.794-13.227v-18.827h3.737v17.016l15.369,12.1Z" transform="translate(1019.689 934.084)" fill="#fff"/>
        </g>
        <g id="Grupo_238" data-name="Grupo 238" transform="translate(39.661 1.868)">
          <rect id="Retângulo_463" data-name="Retângulo 463" width="3.735" height="9.746" fill="#00c5ff"/>
        </g>
        <g id="Grupo_239" data-name="Grupo 239" transform="translate(32.982)">
          <rect id="Retângulo_464" data-name="Retângulo 464" width="17.093" height="3.737" fill="#00c5ff"/>
        </g>
        <path id="Caminho_282" data-name="Caminho 282" d="M-1006.117-947.257a38.783,38.783,0,0,0-35.817,24.017h4.283a34.848,34.848,0,0,1,31.534-20.094,34.846,34.846,0,0,1,34.807,34.806,34.847,34.847,0,0,1-34.807,34.808,34.847,34.847,0,0,1-31.565-20.162h-4.279a38.783,38.783,0,0,0,35.844,24.086,38.774,38.774,0,0,0,38.729-38.731A38.773,38.773,0,0,0-1006.117-947.257Z" transform="translate(1049.39 962.945)" fill="#fff"/>
        <g id="Grupo_240" data-name="Grupo 240" transform="translate(0 47.167)">
          <rect id="Retângulo_465" data-name="Retângulo 465" width="15.157" height="14.501" fill="#00c5ff"/>
        </g>
      </g>
      <g id="Grupo_245" data-name="Grupo 245" transform="translate(0 33.446)">
        <g id="Grupo_242" data-name="Grupo 242">
          <rect id="Retângulo_466" data-name="Retângulo 466" width="48.018" height="3.923" fill="#fff"/>
        </g>
        <g id="Grupo_243" data-name="Grupo 243" transform="translate(13.459 16.993)">
          <rect id="Retângulo_467" data-name="Retângulo 467" width="34.559" height="3.923" fill="#fff"/>
        </g>
        <g id="Grupo_244" data-name="Grupo 244" transform="translate(29.767 33.985)">
          <rect id="Retângulo_468" data-name="Retângulo 468" width="18.251" height="3.923" fill="#fff"/>
        </g>
      </g>
    </g>
    <g id="Grupo_259" data-name="Grupo 259" transform="translate(-261.341 -935.669)">
      <g id="Grupo_255" data-name="Grupo 255" transform="translate(0.095)">
        <g id="Grupo_247" data-name="Grupo 247" transform="translate(90.713 39.796)">
          <path id="Caminho_283" data-name="Caminho 283" d="M-433.577-874.445a21.057,21.057,0,0,1-21.033-21.033,21.058,21.058,0,0,1,21.033-21.033,21.058,21.058,0,0,1,21.032,21.033A21.057,21.057,0,0,1-433.577-874.445Zm0-38.33a17.316,17.316,0,0,0-17.3,17.3,17.316,17.316,0,0,0,17.3,17.3,17.316,17.316,0,0,0,17.3-17.3A17.316,17.316,0,0,0-433.577-912.775Z" transform="translate(454.61 916.511)" fill="#fff"/>
        </g>
        <g id="Grupo_248" data-name="Grupo 248" transform="translate(8.857 39.796)">
          <path id="Caminho_284" data-name="Caminho 284" d="M-490.141-874.445a21.057,21.057,0,0,1-21.032-21.033,21.058,21.058,0,0,1,21.032-21.033,21.058,21.058,0,0,1,21.033,21.033A21.057,21.057,0,0,1-490.141-874.445Zm0-38.33a17.316,17.316,0,0,0-17.3,17.3,17.316,17.316,0,0,0,17.3,17.3,17.316,17.316,0,0,0,17.3-17.3A17.316,17.316,0,0,0-490.141-912.775Z" transform="translate(511.173 916.511)" fill="#fff"/>
        </g>
        <g id="Grupo_249" data-name="Grupo 249" transform="translate(74.168 8.38)">
          <path id="Caminho_285" data-name="Caminho 285" d="M-438.961-901.912l-13.868-26.682a9.675,9.675,0,0,0-7.286-5.123l-5.928-.8.5-3.7,5.928.8a13.421,13.421,0,0,1,10.1,7.1l13.868,26.683Z" transform="translate(466.043 938.219)" fill="#fff"/>
        </g>
        <g id="Grupo_250" data-name="Grupo 250" transform="translate(29.889 24.023)">
          <path id="Caminho_286" data-name="Caminho 286" d="M-461.361-888.736h-16.114v-3.737h16.114a4.482,4.482,0,0,0,3.627-1.855l16.847-23.382a3.7,3.7,0,0,0,.3-3.916,3.7,3.7,0,0,0-3.35-2.048h-6.939a12.233,12.233,0,0,0-11.332,7.57,13.246,13.246,0,0,1-12.276,8.2h-22.15v-3.737h22.15a9.523,9.523,0,0,0,8.826-5.9,15.955,15.955,0,0,1,14.781-9.877h6.939a7.469,7.469,0,0,1,6.676,4.081,7.471,7.471,0,0,1-.59,7.8L-454.7-892.144A8.22,8.22,0,0,1-461.361-888.736Z" transform="translate(496.64 927.41)" fill="#fff"/>
        </g>
        <g id="Grupo_251" data-name="Grupo 251" transform="translate(29.889 32.425)">
          <path id="Caminho_287" data-name="Caminho 287" d="M-496.64-921.6" transform="translate(496.64 921.604)" fill="none" stroke="#333" stroke-miterlimit="10" stroke-width="2.582"/>
        </g>
        <g id="Grupo_252" data-name="Grupo 252" transform="translate(29.889 41.664)">
          <path id="Caminho_288" data-name="Caminho 288" d="M-496.64-915.22" transform="translate(496.64 915.22)" fill="none" stroke="#414141" stroke-miterlimit="10" stroke-width="2.582"/>
        </g>
        <g id="Grupo_253" data-name="Grupo 253" transform="translate(29.889 41.664)">
          <path id="Caminho_289" data-name="Caminho 289" d="M-496.64-915.22" transform="translate(496.64 915.22)" fill="none" stroke="#414141" stroke-miterlimit="10" stroke-width="2.582"/>
        </g>
        <g id="Grupo_254" data-name="Grupo 254">
          <path id="Caminho_290" data-name="Caminho 290" d="M-485.536-900.477h-31.757V-920.5h3.735v16.291h24.285v-36.059h-5.662v-3.737h9.4Z" transform="translate(517.293 944.01)" fill="#fff"/>
        </g>
      </g>
      <g id="Grupo_256" data-name="Grupo 256" transform="translate(0 0.207)">
        <rect id="Retângulo_469" data-name="Retângulo 469" width="14.794" height="14.679" fill="#ff5630"/>
      </g>
      <g id="Grupo_257" data-name="Grupo 257" transform="translate(105.25 23.551)">
        <path id="Caminho_291" data-name="Caminho 291" d="M-444.631-927.736" transform="translate(444.631 927.736)" fill="none" stroke="#ff5630" stroke-miterlimit="10" stroke-width="2.582"/>
      </g>
      <g id="Grupo_258" data-name="Grupo 258" transform="translate(103.038 20.181)">
        <path id="Caminho_292" data-name="Caminho 292" d="M-434.564-915.391h-4.258a7.363,7.363,0,0,1-5.343-2.308,7.278,7.278,0,0,1-1.981-5.479,7.457,7.457,0,0,1,7.538-6.887h4.043Zm-4.043-10.938a3.764,3.764,0,0,0-3.809,3.375,3.573,3.573,0,0,0,.971,2.693,3.569,3.569,0,0,0,2.624,1.133h.521v-7.2Z" transform="translate(446.16 930.065)" fill="#ff5630"/>
      </g>
    </g>
    <g id="Grupo_269" data-name="Grupo 269" transform="translate(-797.032 -765.476)">
      <g id="Grupo_260" data-name="Grupo 260" transform="translate(70.331 36.663)">
        <path id="Caminho_293" data-name="Caminho 293" d="M-838.923-801.072" transform="translate(838.923 801.072)" fill="none" stroke="#001639" stroke-linecap="square" stroke-linejoin="round" stroke-width="4.08"/>
      </g>
      <g id="Grupo_268" data-name="Grupo 268">
        <g id="Grupo_261" data-name="Grupo 261" transform="translate(61.899 1.869)">
          <path id="Caminho_294" data-name="Caminho 294" d="M-825.995-806.358h-15.868a2.892,2.892,0,0,1-2.887-2.887v-15.87h3.737v15.02h15.019Z" transform="translate(844.75 825.115)" fill="#fff"/>
        </g>
        <g id="Grupo_262" data-name="Grupo 262" transform="translate(52.412 53.796)">
          <path id="Caminho_295" data-name="Caminho 295" d="M-803.356-755.609h-42.22a5.736,5.736,0,0,1-5.729-5.729V-783.5a5.736,5.736,0,0,1,5.729-5.729h42.22a5.736,5.736,0,0,1,5.729,5.729v22.165A5.736,5.736,0,0,1-803.356-755.609Zm-42.22-29.887a2,2,0,0,0-1.993,1.993v22.165a2,2,0,0,0,1.993,1.993h42.22a2,2,0,0,0,1.993-1.993V-783.5a2,2,0,0,0-1.993-1.993Z" transform="translate(851.305 789.233)" fill="#fff"/>
        </g>
        <g id="Grupo_263" data-name="Grupo 263" transform="translate(26.78)">
          <path id="Caminho_296" data-name="Caminho 296" d="M-813.275-770.742h-3.735v-39.092l-12.835-12.835h-39.171v-3.737H-828.3l15.023,15.026Z" transform="translate(869.017 826.406)" fill="#fff"/>
        </g>
        <g id="Grupo_264" data-name="Grupo 264" transform="translate(0 25.335)">
          <path id="Caminho_297" data-name="Caminho 297" d="M-808.846-726.755h-74.831a3.849,3.849,0,0,1-3.845-3.847v-78.3h3.735v78.3a.11.11,0,0,0,.11.11h74.831a.11.11,0,0,0,.11-.11v-18.081H-805V-730.6A3.85,3.85,0,0,1-808.846-726.755Z" transform="translate(887.522 808.9)" fill="#fff"/>
        </g>
        <g id="Grupo_267" data-name="Grupo 267" transform="translate(0.359 0.101)">
          <g id="Grupo_265" data-name="Grupo 265">
            <rect id="Retângulo_470" data-name="Retângulo 470" width="13.944" height="13.944" fill="#00c5ff"/>
          </g>
          <g id="Grupo_266" data-name="Grupo 266" transform="translate(60.099 74.242)">
            <rect id="Retângulo_471" data-name="Retângulo 471" width="38.374" height="3.737" fill="#00c5ff"/>
          </g>
        </g>
      </g>
    </g>
    <g id="Grupo_278" data-name="Grupo 278" transform="translate(-1076.455 -762.651)">
      <g id="Grupo_275" data-name="Grupo 275" transform="translate(0)">
        <g id="Grupo_270" data-name="Grupo 270" transform="translate(0 63.025)">
          <rect id="Retângulo_472" data-name="Retângulo 472" width="54.178" height="3.736" transform="matrix(0.707, -0.707, 0.707, 0.707, 0, 38.3)" fill="#fff"/>
        </g>
        <g id="Grupo_271" data-name="Grupo 271" transform="translate(27.993)">
          <path id="Caminho_298" data-name="Caminho 298" d="M-1049.531-756.086A39.786,39.786,0,0,1-1061.26-784.4a39.787,39.787,0,0,1,11.729-28.32,39.79,39.79,0,0,1,28.318-11.729,39.787,39.787,0,0,1,28.318,11.729l-2.641,2.644a36.065,36.065,0,0,0-25.677-10.638,36.071,36.071,0,0,0-25.677,10.638,36.071,36.071,0,0,0-10.635,25.676,36.073,36.073,0,0,0,10.635,25.676Z" transform="translate(1061.26 824.454)" fill="#fff"/>
        </g>
        <g id="Grupo_272" data-name="Grupo 272" transform="translate(39.91 20.148)">
          <path id="Caminho_299" data-name="Caminho 299" d="M-1044.8-770.729a28.177,28.177,0,0,1,0-39.8l2.641,2.643a24.435,24.435,0,0,0,0,34.518Z" transform="translate(1053.025 810.532)" fill="#ff5630"/>
        </g>
        <g id="Grupo_273" data-name="Grupo 273" transform="translate(86.621 58.628)">
          <path id="Caminho_300" data-name="Caminho 300" d="M-1020.748-783.942" transform="translate(1020.748 783.942)" fill="none" stroke="#333" stroke-miterlimit="10" stroke-width="3.273"/>
        </g>
        <g id="Grupo_274" data-name="Grupo 274" transform="translate(49.46 58.628)">
          <path id="Caminho_301" data-name="Caminho 301" d="M-1046.426-783.942" transform="translate(1046.426 783.942)" fill="none" stroke="#333" stroke-miterlimit="10" stroke-width="2.582"/>
        </g>
      </g>
      <g id="Grupo_276" data-name="Grupo 276" transform="translate(39.722 11.729)">
        <path id="Caminho_302" data-name="Caminho 302" d="M-992-786.068c-.155.326-.3.656-.464.977a36.282,36.282,0,0,1-6.692,9.2,36.355,36.355,0,0,1-51.354,0l-2.641,2.643a39.924,39.924,0,0,0,28.318,11.711,39.922,39.922,0,0,0,28.319-11.711,40,40,0,0,0,7.379-10.143c.447-.877.848-1.771,1.226-2.673Z" transform="translate(1053.155 829.89)" fill="#fff"/>
        <path id="Caminho_303" data-name="Caminho 303" d="M-1007.989-801.992h4c-.178-.48-.355-.961-.553-1.437a39.788,39.788,0,0,0-8.663-12.92l-2.641,2.644a36.028,36.028,0,0,1,7.854,11.712Z" transform="translate(1069.84 816.349)" fill="#fff"/>
      </g>
      <g id="Grupo_277" data-name="Grupo 277" transform="translate(98.993 33.778)">
        <rect id="Retângulo_473" data-name="Retângulo 473" width="14.536" height="14.536" fill="#ff5630"/>
      </g>
    </g>
  </g>
</svg>
