<svg id="Grupo_187" data-name="Grupo 187" xmlns="http://www.w3.org/2000/svg" width="1025.705" height="589.392" viewBox="0 0 1025.705 589.392">
  <g id="Grupo_12" data-name="Grupo 12" transform="translate(2.607 0)">
    <rect id="Retângulo_10" data-name="Retângulo 10" width="107.205" height="106.387" fill="#ff5630"/>
  </g>
  <g id="Grupo_13" data-name="Grupo 13" transform="translate(177.004 1.262)">
    <path id="Caminho_60" data-name="Caminho 60" d="M188.592,519.02l-202.228-198.5a127.172,127.172,0,0,0-89.582-36.6H-411.086V255.476h307.868A155.45,155.45,0,0,1,6.272,300.23L208.5,498.735Z" transform="translate(411.086 -255.476)" fill="#fff"/>
  </g>
  <g id="Grupo_14" data-name="Grupo 14" transform="translate(783.246 240.451)">
    <path id="Caminho_61" data-name="Caminho 61" d="M-279.569,550.3h-73.606V521.866h73.606a29.008,29.008,0,0,0,29.11-28.854V335.559a29.006,29.006,0,0,0-29.11-28.843h-71.352V278.281h71.352c31.861,0,57.786,25.7,57.786,57.278V493.012C-221.783,524.6-247.709,550.3-279.569,550.3Z" transform="translate(353.175 -278.281)" fill="#fff"/>
  </g>
  <g id="Grupo_15" data-name="Grupo 15" transform="translate(277.869 484.038)">
    <rect id="Retângulo_11" data-name="Retângulo 11" width="352.69" height="28.434" fill="#fff"/>
  </g>
  <g id="Grupo_16" data-name="Grupo 16" transform="translate(0 166.98)">
    <path id="Caminho_62" data-name="Caminho 62" d="M-303.936,616.767H-390.13a37.874,37.874,0,0,1-37.832-37.832V271.276h28.424V578.934a9.411,9.411,0,0,0,9.408,9.4h86.194Z" transform="translate(427.962 -271.276)" fill="#fff"/>
  </g>
  <g id="Grupo_17" data-name="Grupo 17" transform="translate(460.266 132.242)">
    <path id="Caminho_63" data-name="Caminho 63" d="M-57.709,404.608H-302.216a81.951,81.951,0,0,1-81.863-81.862V267.964h28.424v54.782a53.5,53.5,0,0,0,53.439,53.427H-57.709Z" transform="translate(384.079 -267.964)" fill="#fff"/>
  </g>
  <g id="Grupo_18" data-name="Grupo 18" transform="translate(109.814 407.113)">
    <path id="Caminho_64" data-name="Caminho 64" d="M-326.359,476.45a91.239,91.239,0,0,1-91.133-91.134,91.248,91.248,0,0,1,91.133-91.144,91.248,91.248,0,0,1,91.135,91.144A91.239,91.239,0,0,1-326.359,476.45Zm0-153.845a62.779,62.779,0,0,0-62.71,62.71,62.771,62.771,0,0,0,62.71,62.7,62.771,62.771,0,0,0,62.712-62.7A62.779,62.779,0,0,0-326.359,322.605Z" transform="translate(417.492 -294.171)" fill="#fff"/>
  </g>
  <g id="Grupo_19" data-name="Grupo 19" transform="translate(616.345 407.113)">
    <path id="Caminho_65" data-name="Caminho 65" d="M-278.064,476.45A91.239,91.239,0,0,1-369.2,385.315a91.248,91.248,0,0,1,91.134-91.144,91.248,91.248,0,0,1,91.134,91.144A91.239,91.239,0,0,1-278.064,476.45Zm0-153.845a62.779,62.779,0,0,0-62.71,62.71,62.77,62.77,0,0,0,62.71,62.7,62.771,62.771,0,0,0,62.711-62.7A62.78,62.78,0,0,0-278.064,322.605Z" transform="translate(369.198 -294.171)" fill="#fff"/>
  </g>
  <g id="Grupo_23" data-name="Grupo 23" transform="translate(881.176 129.529)">
    <g id="Grupo_20" data-name="Grupo 20">
      <rect id="Retângulo_12" data-name="Retângulo 12" width="27.071" height="67.315" fill="#ff5630"/>
    </g>
    <g id="Grupo_21" data-name="Grupo 21" transform="translate(77.204 118.886)">
      <rect id="Retângulo_13" data-name="Retângulo 13" width="67.325" height="27.082" fill="#ff5630"/>
    </g>
    <g id="Grupo_22" data-name="Grupo 22" transform="translate(46.48 29.628)">
      <rect id="Retângulo_14" data-name="Retângulo 14" width="70.688" height="27.08" transform="matrix(0.707, -0.707, 0.707, 0.707, 0, 49.971)" fill="#ff5630"/>
    </g>
  </g>
</svg>
