<svg xmlns="http://www.w3.org/2000/svg" width="233.121" height="351.292" viewBox="0 0 233.121 351.292">
  <g id="Grupo_3668" data-name="Grupo 3668" transform="translate(-203.348 -1849.07)">
    <g id="Grupo_286" data-name="Grupo 286" transform="translate(203.348 1849.07)">
      <g id="Grupo_281" data-name="Grupo 281" transform="translate(0.582 0.323)">
        <rect id="Retângulo_474" data-name="Retângulo 474" width="19.488" height="19.351" fill="#00c5ff"/>
      </g>
      <path id="Caminho_307" data-name="Caminho 307" d="M-173.77,299.32h-14.746L-233.5,255.161A35.288,35.288,0,0,0-258.363,245h-70.683v6.435h70.683a28.89,28.89,0,0,1,20.351,8.319L-197.7,299.32h-57.93a12.158,12.158,0,0,1-12.144-12.144V274.734h-6.435v12.442a18.6,18.6,0,0,0,18.579,18.579h81.863a6.57,6.57,0,0,1,6.563,6.562v29.655a6.57,6.57,0,0,1-6.563,6.563h-13.6a20.719,20.719,0,0,0-20.435-17.469,20.718,20.718,0,0,0-20.435,17.469h-74.165a20.718,20.718,0,0,0-20.434-17.469,20.719,20.719,0,0,0-20.435,17.469h-16.609a2.149,2.149,0,0,1-2.146-2.146V284.024h-6.435v62.365a8.591,8.591,0,0,0,8.581,8.581h16.609a20.719,20.719,0,0,0,20.435,17.469,20.718,20.718,0,0,0,20.434-17.469h74.165a20.718,20.718,0,0,0,20.435,17.469,20.719,20.719,0,0,0,20.435-17.469h13.6a13.013,13.013,0,0,0,13-13V312.317A13.012,13.012,0,0,0-173.77,299.32ZM-322.842,366a14.267,14.267,0,0,1-14.251-14.251A14.267,14.267,0,0,1-322.842,337.5a14.268,14.268,0,0,1,14.251,14.252A14.267,14.267,0,0,1-322.842,366Zm115.035,0a14.268,14.268,0,0,1-14.252-14.251A14.268,14.268,0,0,1-207.808,337.5a14.267,14.267,0,0,1,14.251,14.252A14.267,14.267,0,0,1-207.808,366Z" transform="translate(368.468 -244.999)" fill="#fff"/>
      <g id="Grupo_285" data-name="Grupo 285" transform="translate(199.964 29.118)">
        <g id="Grupo_282" data-name="Grupo 282" transform="translate(0)">
          <rect id="Retângulo_475" data-name="Retângulo 475" width="6.435" height="15.289" fill="#00c5ff"/>
        </g>
        <g id="Grupo_283" data-name="Grupo 283" transform="translate(17.869 26.04)">
          <rect id="Retângulo_476" data-name="Retângulo 476" width="15.289" height="6.435" fill="#00c5ff"/>
        </g>
        <g id="Grupo_284" data-name="Grupo 284" transform="translate(10.6 6.629)">
          <rect id="Retângulo_477" data-name="Retângulo 477" width="16.052" height="6.435" transform="matrix(0.707, -0.707, 0.707, 0.707, 0, 11.352)" fill="#00c5ff"/>
        </g>
      </g>
    </g>
    <g id="Grupo_287" data-name="Grupo 287" transform="translate(203.348 2072.924)">
      <g id="Grupo_281-2" data-name="Grupo 281" transform="translate(0.582 0.323)">
        <rect id="Retângulo_474-2" data-name="Retângulo 474" width="19.488" height="19.351" fill="#ff5630"/>
      </g>
      <path id="Caminho_307-2" data-name="Caminho 307" d="M-173.77,299.32h-14.746L-233.5,255.161A35.288,35.288,0,0,0-258.363,245h-70.683v6.435h70.683a28.89,28.89,0,0,1,20.351,8.319L-197.7,299.32h-57.93a12.158,12.158,0,0,1-12.144-12.144V274.734h-6.435v12.442a18.6,18.6,0,0,0,18.579,18.579h81.863a6.57,6.57,0,0,1,6.563,6.562v29.655a6.57,6.57,0,0,1-6.563,6.563h-13.6a20.719,20.719,0,0,0-20.435-17.469,20.718,20.718,0,0,0-20.435,17.469h-74.165a20.718,20.718,0,0,0-20.434-17.469,20.719,20.719,0,0,0-20.435,17.469h-16.609a2.149,2.149,0,0,1-2.146-2.146V284.024h-6.435v62.365a8.591,8.591,0,0,0,8.581,8.581h16.609a20.719,20.719,0,0,0,20.435,17.469,20.718,20.718,0,0,0,20.434-17.469h74.165a20.718,20.718,0,0,0,20.435,17.469,20.719,20.719,0,0,0,20.435-17.469h13.6a13.013,13.013,0,0,0,13-13V312.317A13.012,13.012,0,0,0-173.77,299.32ZM-322.842,366a14.267,14.267,0,0,1-14.251-14.251A14.267,14.267,0,0,1-322.842,337.5a14.268,14.268,0,0,1,14.251,14.252A14.267,14.267,0,0,1-322.842,366Zm115.035,0a14.268,14.268,0,0,1-14.252-14.251A14.268,14.268,0,0,1-207.808,337.5a14.267,14.267,0,0,1,14.251,14.252A14.267,14.267,0,0,1-207.808,366Z" transform="translate(368.468 -244.999)" fill="#fff"/>
      <g id="Grupo_285-2" data-name="Grupo 285" transform="translate(199.964 29.118)">
        <g id="Grupo_282-2" data-name="Grupo 282" transform="translate(0)">
          <rect id="Retângulo_475-2" data-name="Retângulo 475" width="6.435" height="15.289" fill="#ff5630"/>
        </g>
        <g id="Grupo_283-2" data-name="Grupo 283" transform="translate(17.869 26.04)">
          <rect id="Retângulo_476-2" data-name="Retângulo 476" width="15.289" height="6.435" fill="#ff5630"/>
        </g>
        <g id="Grupo_284-2" data-name="Grupo 284" transform="translate(10.6 6.629)">
          <rect id="Retângulo_477-2" data-name="Retângulo 477" width="16.052" height="6.435" transform="matrix(0.707, -0.707, 0.707, 0.707, 0, 11.352)" fill="#ff5630"/>
        </g>
      </g>
    </g>
  </g>
</svg>
