<svg id="Grupo_339" data-name="Grupo 339" xmlns="http://www.w3.org/2000/svg" width="327.416" height="373.865" viewBox="0 0 327.416 373.865">
  <rect id="Retângulo_768" data-name="Retângulo 768" width="143.667" height="143.667" transform="translate(183.749 228.753)" fill="#ff5630"/>
  <g id="Grupo_338" data-name="Grupo 338" transform="translate(0 0)">
    <g id="Grupo_337" data-name="Grupo 337">
      <path id="Caminho_390" data-name="Caminho 390" d="M772.348,679.762c7.982.387,15.682-1.4,23.407-3.017,3.463-.725,6.95-1.311,10.5-.619,8.664,1.69,12.463,6.856,11.1,15.561a36.529,36.529,0,0,1-6.78,15.709,9.614,9.614,0,0,1-4.515,3.611c-2.083.724-1.851,1.53-.761,3.062,17.621,24.755,28.652,52.283,34.208,82.063a246.186,246.186,0,0,1,4.178,43.483c.01,1.391.1,2.783.154,4.174-.054,1.556-.005,3.124-.19,4.665-.22,1.827.711,3.8-.664,5.482l-15.482.006a2.957,2.957,0,0,1-3.23-1.913c-1.37-2.808-2.941-5.518-4.428-8.267-2.067-4.492-3.809-9.14-6.332-13.417a5.387,5.387,0,0,0-.209-1.364c-4.141-9.521-7.643-19.287-11.225-29.025-.851-2.316-1.316-4.86-2.9-7.226-1.855,13.212-3.8,26.016-10.214,37.6-12.732.03-25.467-.074-38.194.185-3.294.067-4.626-.912-5.5-4.046-1.784-6.4-2.355-12.947-3.168-19.477-.446-19.7,2.123-39.087,5.84-58.367,4.4-22.8,10.365-45.207,16.826-67.49C767.047,679.338,769.923,680.792,772.348,679.762Z" transform="translate(-542.23 -615.074)" fill="#ff7f63"/>
      <path id="Caminho_391" data-name="Caminho 391" d="M764.809,780.122c.813,6.53,1.384,13.077,3.168,19.477.875,3.134,2.207,4.112,5.5,4.046,12.727-.259,25.462-.155,38.194-.185l12.745.185a37.185,37.185,0,0,1-5.539,12.711c-5.475,7.279-12.926,11.628-21.542,13.918-16.221,4.31-32.937,6.014-49.41,9.005-6.274,1.138-12.56,2.215-18.84,3.319a52.08,52.08,0,0,0-7.977,1.116c-2.881.444-3.6,1.714-1.89,4.043a139.814,139.814,0,0,0,9.837,12.425,13.517,13.517,0,0,0,.846,1.4c9.508,12.246,18.984,24.516,28.592,36.683,1.182,1.5.756,2.127-.43,2.965-5.913,3.426-11.692,7.06-17.261,11.023a111.829,111.829,0,0,0-11.73,7.441c-5.575,3.49-11.209,6.892-16.695,10.517-1.9,1.254-2.626.865-3.689-.98q-11.041-19.172-22.309-38.213c-.465-.792-.539-2.089-1.926-2.076a5.509,5.509,0,0,0-1.04-3.119c-5.374-9.218-10.943-18.329-16.066-27.683-4.376-7.989-10.588-15.067-12.444-24.35-.047-.235-.336-.422-.512-.632.995-2.854.234-5.87.9-8.8,1.249-5.465,4.1-9.37,9.325-11.647q36.232-15.793,72.405-31.723c.918-.4,1.765-.97,2.647-1.459a10.7,10.7,0,0,0,4.074.6C750.767,780.105,757.788,780.119,764.809,780.122Z" transform="translate(-564.943 -588.201)" fill="#00c5ff"/>
      <path id="Caminho_392" data-name="Caminho 392" d="M663.314,822.123c.176.21.466.4.512.632,1.856,9.283,8.068,16.361,12.444,24.35,5.123,9.354,10.692,18.465,16.066,27.683a5.509,5.509,0,0,1,1.04,3.119Q683.221,903.621,673.1,929.35c-.7,1.8-1.605,1.2-2.735.739q-12.354-5.035-24.723-10.027a5.847,5.847,0,0,0-2.893-.861c-5.961-3.14-12.357-5.233-18.574-7.757l-4.222-1.933c14.21-28.212,27.007-56.974,41.862-84.718C662.3,823.893,662.814,823.013,663.314,822.123Z" transform="translate(-573.865 -577.165)" fill="#0076af"/>
      <path id="Caminho_393" data-name="Caminho 393" d="M676.148,804.324c-.487-.954,0-1.532.739-2.08,19.078-14.078,32.256-33.127,44.536-52.927,9.53-15.367,18.213-31.274,28.928-45.891,4.552-6.207,9.2-12.354,15.011-17.493-.3,15.463-3.881,30.293-8.675,44.886-5.039,15.336-11.789,30.022-17.2,45.214-2.613,7.332-5.133,14.7-6.06,22.493-13.451,9.682-28.583,15-44.843,17.6-2.921.468-3.566-1.706-5.181-2.814A60.7,60.7,0,0,0,676.148,804.324Z" transform="translate(-559.356 -612.453)" fill="#ff5630"/>
      <path id="Caminho_394" data-name="Caminho 394" d="M721.6,800.052c.927-7.791,3.447-15.161,6.06-22.493,5.415-15.191,12.165-29.877,17.2-45.214,4.795-14.593,8.377-29.423,8.675-44.886,0-.369-.014-.738-.011-1.107.024-4.013.025-4,4.085-4.363a9.935,9.935,0,0,0,1.822-.515l10.631-1.433c-6.462,22.284-12.431,44.691-16.827,67.491-3.717,19.281-6.285,38.672-5.84,58.367-7.021,0-14.042-.016-21.062,0a10.7,10.7,0,0,1-4.074-.6A17.907,17.907,0,0,1,721.6,800.052Z" transform="translate(-547.529 -613.98)" fill="#dce1e6"/>
      <path id="Caminho_395" data-name="Caminho 395" d="M735.094,653.279c-2.6.974-3.352-.2-3.8-2.686-1.432-7.983,1.146-14.378,8.2-18.082a41.211,41.211,0,0,1,26.13-4.406,13.056,13.056,0,0,1,10.922,9.135,3.752,3.752,0,0,0,2.307,2.449,9.927,9.927,0,0,1,5.73,12.357c-.977,3.4-2.735,6.473-4.278,9.631-2.523,5.161-4.969,10.352-6.369,15.961-.184.734-.365,1.452-1.187,1.743-1.633.141-2.989-.16-3.063-2.167-.175-4.746-1.869-9.389-.472-14.27a4.864,4.864,0,0,0-2.555-5.9,5.07,5.07,0,0,0-6.328,1.191,16.446,16.446,0,0,0-2.3,2.765,3.018,3.018,0,0,1-3.188,1.639c-1.583-.171-1.549-1.479-1.813-2.449-1.016-3.716-3.381-5.691-7.149-6.459A46.364,46.364,0,0,0,735.094,653.279Z" transform="translate(-545.115 -627.574)" fill="#e6e6e6"/>
      <path id="Caminho_396" data-name="Caminho 396" d="M734.5,648.009a46.361,46.361,0,0,1,10.784.45c3.769.768,6.133,2.744,7.149,6.459.264.969.23,2.278,1.813,2.449a3.018,3.018,0,0,0,3.188-1.639,16.448,16.448,0,0,1,2.3-2.765,5.07,5.07,0,0,1,6.328-1.191,4.864,4.864,0,0,1,2.555,5.9c-1.4,4.88.3,9.524.472,14.27.074,2.007,1.43,2.308,3.063,2.167l2.482,12.882c-2.425,1.03-5.3-.424-7.586,1.376q-5.313.714-10.629,1.432c.427-3.291.854-6.582,1.319-10.171-4.343,2.212-8.409,4.384-13,5.247-4.943.928-6.992-.047-8.852-4.773-2.955-7.517-2.99-15.384-2.407-23.279C733.7,653.877,734.158,650.947,734.5,648.009Z" transform="translate(-544.525 -622.305)" fill="#925b3a"/>
      <path id="Caminho_397" data-name="Caminho 397" d="M640.639,912.417c5.2-1.209,5.74-.6,7.061,5.032.8,3.41.039,6.614-.2,9.9-.142,1.913-1.661,1.857-3.125,1.854q-16.433-.034-32.867-.013c-8.079,0-16.156-.042-24.233.03-1.915.018-3.446-.026-3.806-2.435-.453-3.028.426-5.093,2.637-6.042a12.831,12.831,0,0,1,4.37-.642c6.007-.414,11.064-3.464,16.39-5.738,5.705-2.437,11.337-5.045,16.983-7.618a5.853,5.853,0,0,1,2.43-.461c.873,1.719,1.108,3.853,2.532,5.175C631.351,913.819,637.4,914.166,640.639,912.417Z" transform="translate(-583.35 -555.357)" fill="#e3e3e3"/>
      <path id="Caminho_398" data-name="Caminho 398" d="M763.851,896.1a1.336,1.336,0,0,0,.025.276c1.709,5.68,1.629,5.539-3.722,8.554-11.341,6.39-22.59,12.945-33.883,19.419a1.432,1.432,0,0,0-.912,1.262c-4.1.813-7.218,3.572-10.728,5.533s-3.83,2.08-5.691-.48c-2.006-2.759-1.764-4.962.816-6.926,1.683-1.282,3.42-2.492,5.12-3.752.961-.711,2-1.38,2.119-2.747a6.8,6.8,0,0,0,1.259-1.057c4.028-5.529,7.922-11.157,12.08-16.585,1.915-2.5,3.01-5.83,6.381-7.035,1.85.752,2.789,3.169,5.166,2.916,3.975-.424,7.649-1.49,10.194-4.937.763-1.034,1.719-1.926,2.585-2.885,1.59-.18,2.694.575,3.843,1.627A29.542,29.542,0,0,1,763.851,896.1Z" transform="translate(-551.154 -560.19)" fill="#e3e3e3"/>
      <path id="Caminho_399" data-name="Caminho 399" d="M681.871,779.96a60.7,60.7,0,0,1,7.25,8.991c-2.02.928-3.193,2.765-4.606,4.334-3.233,3.592-6.384,7.268-10.25,10.213-.915.7-2.008,1.875-3.188.925-1.155-.929-.658-2.384-.2-3.622.193-.52.505-.993.713-1.508.975-2.412.513-3.437-2.116-3.945-3.587-.693-7.222-.245-10.84-.142-1.678.048-4.028.89-4.659-1.122s1.652-2.815,3.169-3.653a88.769,88.769,0,0,1,19.055-7.673A13.416,13.416,0,0,0,681.871,779.96Z" transform="translate(-565.079 -588.089)" fill="#935d3b"/>
      <path id="Caminho_400" data-name="Caminho 400" d="M631.806,915.843c-3.237,1.749-9.288,1.4-11.832-.958-1.424-1.322-1.66-3.456-2.532-5.175q3.692-8.325,7.386-16.648c6.218,2.525,12.614,4.617,18.574,7.757-2.886,4.491-6.547,8.382-9.781,12.6C633.008,914.225,632.41,915.036,631.806,915.843Z" transform="translate(-574.517 -558.783)" fill="#b28b65"/>
      <path id="Caminho_401" data-name="Caminho 401" d="M808.373,838.415c3.65-6.731,5.812-13.622,2.284-21.128l15.483-.006c.283,1.676,1.49,2.746,2.591,3.86a145.76,145.76,0,0,0,17.984,14.922,15.218,15.218,0,0,1,2.163,1.739c1.8,1.915,1.54,3.94-.714,5.322a13.154,13.154,0,0,1-13.037.826c-3.943-1.84-7.694-4.087-11.584-6.05-2.69-1.357-5.437-2.036-7.936.485-1.726,1.115-2.673,3.1-4.534,4.063-1.231.636-2.668.886-3.68,0-.961-.842.374-1.794.564-2.729A12.136,12.136,0,0,1,808.373,838.415Z" transform="translate(-525.387 -578.419)" fill="#925c3a"/>
      <path id="Caminho_402" data-name="Caminho 402" d="M792.05,806.458l-12.745-.185c6.413-11.586,8.359-24.39,10.214-37.6,1.589,2.366,2.054,4.91,2.9,7.226,3.582,9.738,7.084,19.5,11.225,29.025a5.384,5.384,0,0,1,.209,1.364Z" transform="translate(-532.576 -591.015)" fill="#ff5630"/>
      <path id="Caminho_403" data-name="Caminho 403" d="M740.281,876.185q1.111,1.407,2.22,2.815l8.167,11.625c-.866.958-1.822,1.851-2.585,2.885-2.545,3.447-6.219,4.513-10.194,4.937-2.377.253-3.316-2.165-5.166-2.916l-9.7-8.321C728.589,883.245,734.368,879.611,740.281,876.185Z" transform="translate(-547.16 -563.157)" fill="#925c3a"/>
    </g>
  </g>
</svg>
