<svg xmlns="http://www.w3.org/2000/svg" width="350.761" height="554.029" viewBox="0 0 350.761 554.029">
  <g id="Grupo_357" data-name="Grupo 357" transform="translate(-2138.523 -624.813)">
    <rect id="Ret창ngulo_806" data-name="Ret창ngulo 806" width="350.761" height="350.761" transform="translate(2138.523 651.29)" fill="#555"/>
    <rect id="Ret창ngulo_807" data-name="Ret창ngulo 807" width="247.181" height="352.51" transform="translate(2191.499 650.771)" fill="#555"/>
    <g id="Grupo_355" data-name="Grupo 355" transform="translate(2191.523 624.813)">
      <path id="Caminho_478" data-name="Caminho 478" d="M2221.05,820.62c-.065.2-.126.408-.175.611q-15.025-6.906-30.046-13.815,15.013,6.926,30.046,13.815h0C2220.924,821.028,2220.985,820.823,2221.05,820.62Z" transform="translate(-2155.299 -498.352)" fill="none"/>
      <path id="Caminho_479" data-name="Caminho 479" d="M2261.388,937.406q-.085-1.752-.168-3.507c.119-.56.268-1.117.4-1.676-.13.559-.279,1.115-.4,1.676Q2261.3,935.653,2261.388,937.406Z" transform="translate(-2106.552 -411.917)" fill="none"/>
      <path id="Caminho_480" data-name="Caminho 480" d="M2221.6,827.69a21.289,21.289,0,0,1-8.492,6.059,21.3,21.3,0,0,0,8.493-6.059c2.561-5.916,3.145-12.175,3.665-18.437C2224.746,815.515,2224.163,821.774,2221.6,827.69Z" transform="translate(-2139.87 -497.08)" fill="none"/>
      <path id="Caminho_481" data-name="Caminho 481" d="M2266.741,875.569q.007,3.94.014,7.882c-.452,2.146-.79,4.3-1.057,6.467.267-2.165.605-4.321,1.057-6.467q-.008-3.94-.014-7.882Z" transform="translate(-2103.449 -451.153)" fill="none"/>
      <path id="Caminho_482" data-name="Caminho 482" d="M2265.954,884.047c-.266,2.163-.46,4.335-.624,6.51C2265.494,888.382,2265.688,886.21,2265.954,884.047Z" transform="translate(-2103.705 -445.282)" fill="none"/>
      <path id="Caminho_483" data-name="Caminho 483" d="M2247.2,697.915l-7.865,5.127v0Z" transform="translate(-2121.71 -574.186)" fill="none"/>
      <path id="Caminho_484" data-name="Caminho 484" d="M2197.979,766.86h0a10.517,10.517,0,0,1,.946.56A10.517,10.517,0,0,0,2197.979,766.86Z" transform="translate(-2150.347 -526.439)" fill="none"/>
      <path id="Caminho_485" data-name="Caminho 485" d="M2316.44,856.627q-.008,1.292-.055,2.581Q2316.434,857.921,2316.44,856.627Z" transform="translate(-2068.346 -464.271)" fill="none"/>
      <path id="Caminho_486" data-name="Caminho 486" d="M2270.857,801.092l-36.2-17.186,36.2,17.186,3.469,1.671v0Z" transform="translate(-2124.944 -514.634)" fill="none"/>
      <path id="Caminho_487" data-name="Caminho 487" d="M2274.713,935.034l-28.969-.084a4.513,4.513,0,0,1-4.01-4.367,4.513,4.513,0,0,0,4.006,4.368l-.137,6.694q.069-3.349.139-6.7Z" transform="translate(-2120.046 -413.053)" fill="none"/>
      <path id="Caminho_488" data-name="Caminho 488" d="M2273.039,875.586l-6.725-.017h0l6.725.017Z" transform="translate(-2103.022 -451.153)" fill="none"/>
      <path id="Caminho_489" data-name="Caminho 489" d="M2235.741,828.724c.069.625.141,1.247.212,1.872l-.212-1.872Z" transform="translate(-2124.195 -483.595)" fill="none"/>
      <path id="Caminho_490" data-name="Caminho 490" d="M2250.019,849.113c-9.756.049-19.513.144-29.269.141,9.758,0,19.516-.091,29.269-.139Z" transform="translate(-2134.578 -469.475)" fill="none"/>
      <path id="Caminho_491" data-name="Caminho 491" d="M2311.749,629.68c.023.024.043.047.066.071C2311.792,629.728,2311.772,629.7,2311.749,629.68Z" transform="translate(-2071.557 -621.442)" fill="none"/>
      <path id="Caminho_492" data-name="Caminho 492" d="M2312.489,630.5a27.1,27.1,0,0,1,1.952,2.593A27.1,27.1,0,0,0,2312.489,630.5Z" transform="translate(-2071.044 -620.872)" fill="none"/>
      <path id="Caminho_493" data-name="Caminho 493" d="M2224.421,788.648a10.8,10.8,0,0,0-.863,2.373,10.624,10.624,0,0,1,.865-2.37c.009-7.809,1.476-15.478,2.27-23.213C2225.9,773.173,2224.432,780.842,2224.421,788.648Z" transform="translate(-2132.633 -527.424)" fill="none"/>
      <path id="Caminho_494" data-name="Caminho 494" d="M2271.681,735.184a100.815,100.815,0,0,0-3.424-14.468h0A100.815,100.815,0,0,1,2271.681,735.184Z" transform="translate(-2101.677 -558.396)" fill="none"/>
      <path id="Caminho_495" data-name="Caminho 495" d="M2222.706,729.455q-1.145,2.031-2.243,4.087Q2221.56,731.486,2222.706,729.455Z" transform="translate(-2134.776 -552.344)" fill="none"/>
      <path id="Caminho_496" data-name="Caminho 496" d="M2270.42,730.143q.523,3.511.827,7.056Q2270.941,733.655,2270.42,730.143Z" transform="translate(-2100.179 -551.867)" fill="none"/>
      <path id="Caminho_497" data-name="Caminho 497" d="M2213.194,773.924c.868,10.846.967,21.71,1.059,32.576-.092-10.866-.191-21.73-1.058-32.576l-12.834-6.108Z" transform="translate(-2148.699 -525.777)" fill="none"/>
      <path id="Caminho_498" data-name="Caminho 498" d="M2203.9,763.737q2.061-4.2,4.18-8.382Q2205.969,759.534,2203.9,763.737Z" transform="translate(-2146.246 -534.407)" fill="none"/>
      <path id="Caminho_499" data-name="Caminho 499" d="M2200.967,771.292a3.012,3.012,0,0,1-1.483-.183,3.012,3.012,0,0,0,1.483.183q1.919-4.275,3.948-8.495Q2202.893,767.022,2200.967,771.292Z" transform="translate(-2149.306 -529.253)" fill="none"/>
      <path id="Caminho_500" data-name="Caminho 500" d="M2218.978,737.96c-1.32,2.674-2.63,5.353-3.962,8.021C2216.348,743.314,2217.658,740.634,2218.978,737.96Z" transform="translate(-2138.548 -546.453)" fill="none"/>
      <path id="Caminho_501" data-name="Caminho 501" d="M2272.45,806.235c.029-.5.075-1,.11-1.5-.035.5-.081,1-.11,1.5Z" transform="translate(-2098.772 -500.21)" fill="none"/>
      <path id="Caminho_502" data-name="Caminho 502" d="M2276.941,849.672l1-.222.6-.345q31.67.071,63.337.124-31.669-.041-63.337-.124l-.6.345Z" transform="translate(-2095.663 -469.48)" fill="none"/>
      <path id="Caminho_503" data-name="Caminho 503" d="M2220.683,806.229q-.169,1.7-.308,3.41Q2220.516,807.931,2220.683,806.229Z" transform="translate(-2134.837 -499.174)" fill="none"/>
      <path id="Caminho_504" data-name="Caminho 504" d="M2249.564,688.218l-4.756,15.5h0Z" transform="translate(-2117.916 -580.902)" fill="none"/>
      <path id="Caminho_505" data-name="Caminho 505" d="M2254.194,804.566q.626-1.008,1.33-1.977h0Q2254.818,803.559,2254.194,804.566Z" transform="translate(-2111.417 -501.695)" fill="none"/>
      <path id="Caminho_506" data-name="Caminho 506" d="M2289.928,671.111c-2.664-5.927-6.75-10.693-13.624-13.192a29.267,29.267,0,0,0-15.5-4.021,29.252,29.252,0,0,1,15.5,4.023C2283.178,660.417,2287.264,665.183,2289.928,671.111Z" transform="translate(-2106.842 -604.673)" fill="none"/>
      <path id="Caminho_507" data-name="Caminho 507" d="M2239.575,931.618h0q-12.3-8.134-24.6-16.272c-2.076-2.136-1.405-4.074-.181-6.059-1.224,1.985-1.9,3.923.176,6.056-.2,1.743-1.393,2.842-2.469,4.016,1.076-1.173,2.27-2.271,2.471-4.015Q2227.275,923.483,2239.575,931.618Z" transform="translate(-2140.294 -427.802)" fill="none"/>
      <path id="Caminho_508" data-name="Caminho 508" d="M2171.673,633.018c.041-.076.084-.149.125-.225C2171.758,632.869,2171.714,632.942,2171.673,633.018Z" transform="translate(-2168.565 -619.286)" fill="none"/>
      <path id="Caminho_509" data-name="Caminho 509" d="M2172.567,632.478a24.972,24.972,0,0,1,1.976-2.535A24.972,24.972,0,0,0,2172.567,632.478Z" transform="translate(-2167.947 -621.26)" fill="none"/>
      <path id="Caminho_510" data-name="Caminho 510" d="M2176.611,627.978q1.058-.7,2.19-1.29Q2177.669,627.282,2176.611,627.978Z" transform="translate(-2165.146 -623.514)" fill="none"/>
      <path id="Caminho_511" data-name="Caminho 511" d="M2174.313,630.624a24.737,24.737,0,0,1,3.89-3.174A24.737,24.737,0,0,0,2174.313,630.624Z" transform="translate(-2166.738 -622.987)" fill="none"/>
      <path id="Caminho_512" data-name="Caminho 512" d="M2310.048,628.146c.5.393.982.809,1.454,1.234C2311.03,628.955,2310.549,628.539,2310.048,628.146Z" transform="translate(-2072.734 -622.505)" fill="none"/>
      <path id="Caminho_513" data-name="Caminho 513" d="M2317.261,646.072h0c.779,1.549.609,3.2.557,4.827.052-1.627.222-3.279-.557-4.827a20.723,20.723,0,0,0-3.618-14.036A20.723,20.723,0,0,1,2317.261,646.072Z" transform="translate(-2070.246 -619.811)" fill="none"/>
      <path id="Caminho_514" data-name="Caminho 514" d="M2252.909,632.029c4.592,0,9.183-.007,13.775.01-4.592-.017-9.183-.007-13.775-.013s-9.184-.022-13.774.013C2243.724,632,2248.316,632.026,2252.909,632.029Z" transform="translate(-2121.846 -619.822)" fill="none"/>
      <path id="Caminho_515" data-name="Caminho 515" d="M2270.287,875.578Z" transform="translate(-2100.271 -451.146)" fill="#d3dce6"/>
      <path id="Caminho_516" data-name="Caminho 516" d="M2228.495,922.48Z" transform="translate(-2129.214 -418.665)" fill="#d3dce6"/>
      <path id="Caminho_517" data-name="Caminho 517" d="M2266.314,875.569Z" transform="translate(-2103.022 -451.153)" fill="#fefefe"/>
      <path id="Caminho_518" data-name="Caminho 518" d="M2270.287,875.627q24.575-.056,49.15-.117-24.576.089-49.15.117Z" transform="translate(-2100.271 -451.194)" fill="#fefefe"/>
      <path id="Caminho_519" data-name="Caminho 519" d="M2316.3,848.966c-.027,4.309.223,8.657.2,12.967.029-4.309-.224-8.657-.2-12.967Z" transform="translate(-2068.405 -469.577)" fill="#fefefe"/>
      <path id="Caminho_520" data-name="Caminho 520" d="M2270.624,875.57h0q-42.06-.02-84.121-.042,42.061.025,84.12.042Z" transform="translate(-2158.295 -451.182)" fill="#fefefe"/>
      <path id="Caminho_521" data-name="Caminho 521" d="M2311.787,629.722c.413.428.806.872,1.188,1.324C2312.593,630.594,2312.2,630.15,2311.787,629.722Z" transform="translate(-2071.53 -621.413)" fill="#fefefe"/>
      <path id="Caminho_522" data-name="Caminho 522" d="M2171.748,633.729a25.412,25.412,0,0,1,1.387-2.288A25.412,25.412,0,0,0,2171.748,633.729Z" transform="translate(-2168.515 -620.223)" fill="#fefefe"/>
      <path id="Caminho_523" data-name="Caminho 523" d="M2310.907,628.875c.49.44.969.892,1.423,1.362C2311.875,629.767,2311.4,629.315,2310.907,628.875Z" transform="translate(-2072.14 -622)" fill="#fefefe"/>
      <path id="Caminho_524" data-name="Caminho 524" d="M2173.734,630.371c.316-.359.643-.709.98-1.046C2174.377,629.662,2174.05,630.012,2173.734,630.371Z" transform="translate(-2167.138 -621.688)" fill="#fefefe"/>
      <path id="Caminho_525" data-name="Caminho 525" d="M2223.932,640.431l.855-.015q.871,0,1.742-.008-.871,0-1.742.008Z" transform="translate(-2132.374 -614.013)" fill="#fefefe"/>
      <path id="Caminho_526" data-name="Caminho 526" d="M2312.307,640.324l5.878.009h0Z" transform="translate(-2071.17 -614.071)" fill="#fefefe"/>
      <path id="Caminho_527" data-name="Caminho 527" d="M2283.658,875.569l-42.388.042q.015,28.44.03,56.878h0c.118,5.755.256,11.51.378,17.264s.228,11.509.276,17.264a13.743,13.743,0,0,0,.1,1.666,4.51,4.51,0,0,0,4.009,4.367l28.969.085c.121-.56.27-1.117.4-1.676a11.766,11.766,0,0,0,.3-1.686c1.772-20.1,3.4-40.21,5.313-60.3.413-4.338.62-8.7.949-13.049.165-2.175.359-4.346.625-6.51s.605-4.321,1.057-6.467Q2283.664,879.511,2283.658,875.569Z" transform="translate(-2120.367 -451.153)" fill="#90e5ff"/>
      <path id="Caminho_528" data-name="Caminho 528" d="M2241.288,909.2h0c.117,5.755.255,11.509.377,17.264-.122-5.755-.261-11.509-.377-17.264Z" transform="translate(-2120.354 -427.863)" fill="#dc9364"/>
      <path id="Caminho_529" data-name="Caminho 529" d="M2283.658,875.569l-42.388.042,42.388-.042Z" transform="translate(-2120.367 -451.153)" fill="#dc9364"/>
      <path id="Caminho_530" data-name="Caminho 530" d="M2214.5,938.707q12.3,8.137,24.6,16.272,10.826-11.239,21.653-22.479-.015-28.437-.031-56.878l-8.574-.07c-.261.428-.511.862-.768,1.292s-.516.858-.792,1.275q-17.845,26.846-35.719,53.674c-.192.286-.378.572-.553.855C2213.1,934.633,2212.429,936.571,2214.5,938.707Z" transform="translate(-2139.828 -451.164)" fill="#0076af"/>
      <path id="Caminho_531" data-name="Caminho 531" d="M2228.5,931.678h0q10.825-11.24,21.652-22.479h0Q2239.32,920.438,2228.5,931.678Z" transform="translate(-2129.214 -427.863)" fill="#c47650"/>
      <path id="Caminho_532" data-name="Caminho 532" d="M2236.519,875.553c-.261.428-.511.862-.769,1.292.257-.43.508-.863.769-1.292Z" transform="translate(-2124.19 -451.164)" fill="#c47650"/>
      <path id="Caminho_533" data-name="Caminho 533" d="M2244.779,875.623l-8.574-.07h0Z" transform="translate(-2123.875 -451.164)" fill="#c47650"/>
      <path id="Caminho_534" data-name="Caminho 534" d="M2236.2,875.553Z" transform="translate(-2123.875 -451.164)" fill="#c47650"/>
      <path id="Caminho_535" data-name="Caminho 535" d="M2262.947,941.8c-5.965.322-11.812,2.09-17.858,1.946h0a15.087,15.087,0,0,0-2.652,8.143c-.034.481-.057.963-.074,1.449s-.023.97-.027,1.457c-.077,9.218-.068,9.218,8.951,9.218h38.009c8.78,0,17.563.019,26.346-.024,1.2-.005,2.9.518,3.273-1.207.323-1.5-.657-2.766-1.877-3.637a10.779,10.779,0,0,0-2.319-1.122c-9.49-3.756-18.9-7.723-28.515-11.132-4.056-1.437-6.556-3.563-6.468-7.823.086-4.275-1.907-4.744-5.262-3.549C2272.119,940.36,2268,941.528,2262.947,941.8Z" transform="translate(-2119.636 -410.03)" fill="#e6e6e6"/>
      <path id="Caminho_536" data-name="Caminho 536" d="M2245.042,940.146h0a15.073,15.073,0,0,0-2.652,8.143,15.087,15.087,0,0,1,2.652-8.143Z" transform="translate(-2119.591 -406.43)" fill="#fefefe"/>
      <path id="Caminho_537" data-name="Caminho 537" d="M2242.346,946.406q.025-.728.075-1.449Q2242.371,945.678,2242.346,946.406Z" transform="translate(-2119.621 -403.099)" fill="#fefefe"/>
      <path id="Caminho_538" data-name="Caminho 538" d="M2233.684,927.321c-5.287-3.827-10.833-7.3-16.267-10.919h0a6.092,6.092,0,0,0-3.8,1.063,8.371,8.371,0,0,0-1.778,1.672,86.983,86.983,0,0,1-6.91,8.229c-2.572,2.454-1.76,3.9.513,5.79q23.471,19.554,46.852,39.213c1.767,1.476,3.542,4.639,5.924,2.85,2.106-1.579.205-4.541-.553-6.811-.317-.948-.874-1.812-1.284-2.732-3.395-7.608-6.671-15.272-10.223-22.807a6.788,6.788,0,0,1,.631-7.579c2.794-4.019,2.577-4.36-2.117-6.376C2240.659,930.8,2237.2,929.865,2233.684,927.321Z" transform="translate(-2146.636 -422.878)" fill="#e6e6e6"/>
      <path id="Caminho_539" data-name="Caminho 539" d="M2213.209,916.4h0a6.08,6.08,0,0,0-3.8,1.063,6.091,6.091,0,0,1,3.8-1.063Z" transform="translate(-2142.429 -422.878)" fill="#fefefe"/>
      <path id="Caminho_540" data-name="Caminho 540" d="M2244.2,933.163q-.072,3.349-.139,6.7-.051,2.561-.1,5.123c6.046.144,11.893-1.625,17.858-1.946,5.054-.271,9.172-1.438,11.526-6.281q-.084-1.752-.169-3.507Z" transform="translate(-2118.506 -411.267)" fill="#eb7374"/>
      <path id="Caminho_541" data-name="Caminho 541" d="M2244.062,937.119q-.053,2.562-.1,5.123h0Q2244.01,939.681,2244.062,937.119Z" transform="translate(-2118.506 -408.527)" fill="#eb7374"/>
      <path id="Caminho_542" data-name="Caminho 542" d="M2240.157,929.139q-12.3-8.134-24.608-16.274c-.2,1.743-1.395,2.842-2.471,4.015a7.782,7.782,0,0,0-1.422,1.969c5.435,3.622,10.981,7.092,16.267,10.919,3.512,2.544,6.975,3.475,10.991,1.594.415-.741.827-1.481,1.242-2.222Z" transform="translate(-2140.875 -425.324)" fill="#eb7374"/>
      <path id="Caminho_543" data-name="Caminho 543" d="M2213.078,915.237a7.781,7.781,0,0,0-1.422,1.969h0A7.781,7.781,0,0,1,2213.078,915.237Z" transform="translate(-2140.875 -423.681)" fill="#eb7374"/>
      <path id="Caminho_544" data-name="Caminho 544" d="M2229,922.48l-1.243,2.222L2229,922.48Z" transform="translate(-2129.722 -418.665)" fill="#eb7374"/>
      <path id="Caminho_545" data-name="Caminho 545" d="M2273.039,875.586l-6.725-.017h0q.007,3.94.014,7.882l6.711-7.865Z" transform="translate(-2103.022 -451.153)" fill="#0076af"/>
      <path id="Caminho_546" data-name="Caminho 546" d="M2273.034,875.579l-6.712,7.865,6.712-7.865Z" transform="translate(-2103.017 -451.146)" fill="#0076af"/>
      <path id="Caminho_547" data-name="Caminho 547" d="M2266.314,875.569h0Z" transform="translate(-2103.022 -451.153)" fill="#c47650"/>
      <path id="Caminho_548" data-name="Caminho 548" d="M2225.216,883.5c2.562-5.915,3.146-12.174,3.666-18.437q.071-.856.142-1.708c.094-1.139.195-2.276.307-3.41s.244-2.266.4-3.394c1.844-13.315,3.12-26.708,4.68-40.064a10.792,10.792,0,0,1,.863-2.373c.01-7.806,1.478-15.475,2.271-23.21q.171-1.658.292-3.321c.142-1.96,1.549-3.656,3.06-5.047,4.77-9.521,11.1-18.068,16.865-26.966,4.533-6.99,4.586-7.026-2.212-11.553-7.761-5.169-15.591-10.236-23.389-15.346-.254.44-.494.888-.744,1.33q-1.146,2.031-2.243,4.087c-1.814,3.4-3.548,6.85-5.258,10.308-1.32,2.674-2.629,5.353-3.962,8.021-1.326,2.652-2.675,5.294-4.076,7.907-3.925,7.312-8.709,14.157-7.9,23.113.4,4.411.19,8.881.212,13.324.007,1.424-.135,2.849-.207,4.275.866,10.846.966,21.71,1.057,32.576.03,3.622.059,7.244.115,10.866.152,9.615.351,19.231.477,28.848a6.053,6.053,0,0,1-.4,1.83c-.065.2-.125.408-.174.611h0c.939,2.933.776,5.941.7,8.938-.026,1-.044,2-.008,2.991.1,2.7.729,3.5,3.517,2.894a22.919,22.919,0,0,0,3.456-1.033A21.291,21.291,0,0,0,2225.216,883.5Z" transform="translate(-2143.486 -552.888)" fill="#cfa470"/>
      <path id="Caminho_549" data-name="Caminho 549" d="M2208.581,815.578h0c.939,2.933.777,5.941.7,8.938C2209.358,821.519,2209.52,818.511,2208.581,815.578Z" transform="translate(-2143.005 -492.699)" fill="#eb7374"/>
      <path id="Caminho_550" data-name="Caminho 550" d="M2245.554,705.088c8.8,3.387,14.083,9.776,15.3,19.144,2.267,17.367,4.325,34.763,6.473,52.146,2.746,22.228,5.41,44.465,8.288,66.676a27.5,27.5,0,0,1-4.528,19.635v0q-2.637,6.383-5.275,12.763h0l29.571,5.132c.029-.5.074-1,.109-1.5s.063-1,.053-1.5q-1.147-54.686-2.324-109.37-.042-2-.145-3.989-.113-2.171-.3-4.331-.307-3.544-.828-7.056c-.073-.5-.158-.992-.237-1.488a100.914,100.914,0,0,0-3.424-14.468q-19.844-19.755-39.687-39.509h0l-1.407.917-7.865,5.128A59.237,59.237,0,0,1,2245.554,705.088Z" transform="translate(-2121.71 -574.562)" fill="#ff481f"/>
      <path id="Caminho_551" data-name="Caminho 551" d="M2270.909,734.312c.123,1.441.227,2.884.3,4.331C2271.136,737.2,2271.032,735.753,2270.909,734.312Z" transform="translate(-2099.841 -548.98)" fill="#fefefe"/>
      <path id="Caminho_552" data-name="Caminho 552" d="M2245.384,697.373q-.7.46-1.407.917l1.407-.917Z" transform="translate(-2118.491 -574.562)" fill="#fefefe"/>
      <path id="Caminho_553" data-name="Caminho 553" d="M2270.281,729.264c.079.5.164.992.236,1.488C2270.444,730.256,2270.36,729.76,2270.281,729.264Z" transform="translate(-2100.276 -552.476)" fill="#fefefe"/>
      <path id="Caminho_554" data-name="Caminho 554" d="M2242.349,881.831a121.259,121.259,0,0,1,24.557,0h.007l1.344-.013a.759.759,0,0,1,1.19.022h0c5.765-.283,11.541.11,17.308-.051,1.924-.054,3.845-.168,5.763-.391,1.458-18.852,3.078-37.693,4.271-56.56.316-5.013,1.169-9.981,1.146-15.015v0l-.06-2.1h0l-29.57-5.132q-.706.97-1.33,1.977c-2.927,4.7-4.706,9.969-7.083,14.938q-5.115,10.694-9.953,21.517c-4.055,9.059-4.974,9.482-14.2,5.8l.212,1.872q1.843,16.317,3.688,32.637h0v0C2240.539,881.5,2241.446,881.667,2242.349,881.831Z" transform="translate(-2124.195 -501.695)" fill="#90e5ff"/>
      <path id="Caminho_555" data-name="Caminho 555" d="M2272.51,807.72v0q-.029-1.051-.061-2.1h0Z" transform="translate(-2098.772 -499.595)" fill="#dc9364"/>
      <path id="Caminho_556" data-name="Caminho 556" d="M2235.866,829.83q1.844,16.314,3.685,32.637h0Q2237.709,846.148,2235.866,829.83Z" transform="translate(-2124.109 -482.829)" fill="#dc9364"/>
      <path id="Caminho_557" data-name="Caminho 557" d="M2255.656,849.455h0v0c5.764-.284,11.541.108,17.308-.052C2267.2,849.565,2261.42,849.173,2255.656,849.455Z" transform="translate(-2110.405 -469.311)" fill="#dc9364"/>
      <path id="Caminho_558" data-name="Caminho 558" d="M2254.154,849.412h.005l1.345-.013-1.344.013Z" transform="translate(-2111.444 -469.277)" fill="#dc9364"/>
      <path id="Caminho_559" data-name="Caminho 559" d="M2254.979,802.589l29.57,5.132-29.57-5.132Z" transform="translate(-2110.872 -501.695)" fill="#dc9364"/>
      <path id="Caminho_560" data-name="Caminho 560" d="M2262.136,857.252q4.842-10.818,9.952-21.517c2.378-4.969,4.157-10.242,7.083-14.938q.627-1.008,1.33-1.977,2.639-6.38,5.276-12.765l-3.469-1.67-36.2-17.186-13.669-6.489-4.257-1.555a10.619,10.619,0,0,0-.865,2.369c-1.561,13.356-2.837,26.749-4.68,40.064-.156,1.127-.284,2.258-.4,3.394s-.213,2.271-.307,3.41q-.072.853-.143,1.708c-.52,6.262-1.1,12.521-3.665,18.437q14.909,7.258,29.814,14.515v0h0C2257.162,866.734,2258.08,866.311,2262.136,857.252Z" transform="translate(-2136.394 -517.926)" fill="#ffa996"/>
      <path id="Caminho_561" data-name="Caminho 561" d="M2218.126,820.146q14.909,7.258,29.814,14.519v0Q2233.032,827.406,2218.126,820.146Z" transform="translate(-2136.394 -489.536)" fill="#61404c"/>
      <path id="Caminho_562" data-name="Caminho 562" d="M2260.255,795.047q-2.639,6.385-5.276,12.765,2.639-6.382,5.276-12.763Z" transform="translate(-2110.872 -506.918)" fill="#61404c"/>
      <path id="Caminho_563" data-name="Caminho 563" d="M2227.14,848.707a6.063,6.063,0,0,0,.4-1.83c-.127-9.617-.327-19.232-.478-28.848-.056-3.622-.084-7.244-.115-10.866-.092-10.866-.191-21.73-1.06-32.576l-12.833-6.108a3.01,3.01,0,0,1-1.482-.183,5.02,5.02,0,0,1-.664-.3c-.32-.176-.628-.377-.937-.577a10.7,10.7,0,0,0-.947-.56v0c-1.376,2.782-2.794,5.546-4.157,8.337q-.681,1.394-1.339,2.8-10.274,22.017-20.446,44.082c-1.98,4.311-1.23,6.237,2.948,8.287,3.6,1.769,7.248,3.453,10.892,5.134q15.013,6.926,30.046,13.815C2227.015,849.115,2227.077,848.91,2227.14,848.707Z" transform="translate(-2161.39 -526.439)" fill="#ffa996"/>
      <path id="Caminho_564" data-name="Caminho 564" d="M2199.68,766.86h0c-1.376,2.784-2.794,5.548-4.157,8.339,1.363-2.791,2.781-5.555,4.157-8.337Z" transform="translate(-2152.049 -526.439)" fill="#61404c"/>
      <path id="Caminho_565" data-name="Caminho 565" d="M2257.5,696.2c-1.344-4.225.286-7.855,4.052-9.028,3.913-1.219,7.517.487,8.641,4.858a205.573,205.573,0,0,1,4.2,20.224c1.218,8,5.763,12.5,13.337,14.426a20.6,20.6,0,0,1,2.012.739h0c1.6.168,3.2.357,4.8.476.534.04,1.066.073,1.6.093a28.64,28.64,0,0,0,3.206-.039,20.732,20.732,0,0,0,3.224-.476c8.136-1.891,12-10.28,7-16.389a12.952,12.952,0,0,1-2.909-8.58c-7.114.963-14.236,1.874-21.337,2.925-1.717.256-3.053.488-3.725-1.623-2.566-8.072-6.252-15.8-7.783-24.185-2.164-11.851,3.338-19.606,15.141-21.7a29.251,29.251,0,0,0-15.5-4.023,32.329,32.329,0,0,0-9.247,1.491,30.614,30.614,0,0,0-10.358,5.6c-10.376,8.617-13.889,20.965-9.39,33.252,2.173,5.936,4.454,11.834,6.686,17.748C2257.81,708.1,2259.75,703.277,2257.5,696.2Z" transform="translate(-2119.491 -604.673)" fill="#414141"/>
      <path id="Caminho_566" data-name="Caminho 566" d="M2270.424,697.332h0c1.6.168,3.2.357,4.8.476-1.6-.118-3.194-.308-4.8-.476Z" transform="translate(-2100.176 -574.59)" fill="#0a3646"/>
      <path id="Caminho_567" data-name="Caminho 567" d="M2255.336,655.387a32.324,32.324,0,0,1,9.247-1.491A32.324,32.324,0,0,0,2255.336,655.387Z" transform="translate(-2110.625 -604.672)" fill="#0a3646"/>
      <path id="Caminho_568" data-name="Caminho 568" d="M2274.2,697.684a28.606,28.606,0,0,0,3.206-.039A28.606,28.606,0,0,1,2274.2,697.684Z" transform="translate(-2097.559 -574.373)" fill="#0a3646"/>
      <path id="Caminho_569" data-name="Caminho 569" d="M2284.5,753.535h0c-.37-2.089-.572-4.225-1.145-6.256-1.816-6.413-2.445-12.642.336-19.089.491-1.136.924-2.295,1.322-3.471,1.191-3.527,2.06-7.193,3.155-10.763a20.518,20.518,0,0,0-2.013-.739c-7.574-1.923-12.119-6.43-13.337-14.426a205.353,205.353,0,0,0-4.2-20.224c-1.124-4.37-4.727-6.076-8.641-4.858-3.766,1.173-5.4,4.8-4.052,9.028,2.251,7.082.312,11.9-6.359,15.793l-4.756,15.5Z" transform="translate(-2117.916 -591.215)" fill="#cfa470"/>
      <path id="Caminho_570" data-name="Caminho 570" d="M2268.56,708.095c1.191-3.527,2.06-7.193,3.155-10.763h0C2270.62,700.9,2269.751,704.568,2268.56,708.095Z" transform="translate(-2101.466 -574.59)" fill="#eb7374"/>
      <path id="Caminho_571" data-name="Caminho 571" d="M2244.808,697.373l39.688,39.509h0Z" transform="translate(-2117.916 -574.562)" fill="#eb7374"/>
      <path id="Caminho_572" data-name="Caminho 572" d="M2199.864,813.647a4.947,4.947,0,0,0,.663.3,3.014,3.014,0,0,0,1.483.183q1.919-4.276,3.949-8.5,1.013-2.112,2.044-4.214,2.061-4.2,4.179-8.382c2.11-4.18,4.246-8.349,6.367-12.526,6.305-12.428,12.258-25.036,18.283-37.6,4.162-8.681,8.1-17.471,12.31-26.131,1.948-4.011,4.231-7.892,9.248-8.776,8.913-6.834,24.3.134,26.709,12.178.7,3.519,1.049,7.112,1.485,10.68,4.407,35.941,8.664,71.9,13.305,107.813.934,7.231,0,13.691-3.63,19.877l3.47,1.669a27.5,27.5,0,0,0,4.528-19.635c-2.878-22.211-5.543-44.448-8.288-66.676-2.148-17.383-4.207-34.779-6.472-52.146-1.223-9.368-6.5-15.758-15.306-19.145a58.649,58.649,0,0,0-6.227-1.667l0,0v0c-12.378.393-19.928,6.892-24.742,18.1-6,13.986-12.764,27.654-19.429,41.347q-3.181,6.535-6.4,13.055c-6.435,13.039-12.952,26.037-19.417,39.062a10.492,10.492,0,0,1,.946.56C2199.235,813.27,2199.543,813.471,2199.864,813.647Z" transform="translate(-2150.347 -572.089)" fill="#da3103"/>
      <path id="Caminho_573" data-name="Caminho 573" d="M2197.979,782.843h0c6.465-13.026,12.982-26.023,19.417-39.062C2210.961,756.82,2204.444,769.819,2197.979,782.843Z" transform="translate(-2150.347 -542.422)" fill="#dc9364"/>
      <path id="Caminho_574" data-name="Caminho 574" d="M2239.328,700.947a58.642,58.642,0,0,1,6.228,1.667,59.237,59.237,0,0,0-6.224-1.669Z" transform="translate(-2121.711 -572.088)" fill="#dc9364"/>
      <path id="Caminho_575" data-name="Caminho 575" d="M2199.756,767.83a5.042,5.042,0,0,1-.664-.3A5.042,5.042,0,0,0,2199.756,767.83Z" transform="translate(-2149.576 -525.974)" fill="#dc9364"/>
      <path id="Caminho_576" data-name="Caminho 576" d="M2276.345,656.273c-11.8,2.09-17.306,9.846-15.142,21.7,1.53,8.385,5.217,16.113,7.783,24.185.671,2.111,2.007,1.879,3.725,1.623,7.1-1.051,14.223-1.962,21.336-2.925,3.972-.42,4.978-2.29,3.68-6.165-2.085-6.235-3.72-12.621-5.518-18.95a45.827,45.827,0,0,0-2.241-6.276C2287.3,663.536,2283.218,658.77,2276.345,656.273Z" transform="translate(-2106.882 -603.025)" fill="#cfa470"/>
      <path id="Caminho_577" data-name="Caminho 577" d="M2273.557,821.878c-1.194,18.867-2.812,37.708-4.271,56.56l.3.1.291-.113c1.268.6,1.268.6,2.832.12l1.994-.024a.811.811,0,0,0,.679.041c1.53-.029,2.91.112,4.439.081.889-.049,1.934.313,2.426.284.264.058.817-.418,1-.222l.6-.345c-.03-.86,0-1.727-.1-2.576-1.95-15.764-3.774-31.546-5.939-47.281-.126-.9-.236-1.806-.339-2.711-.723-6.337-1.056-12.735-2.769-18.928C2274.726,811.9,2273.873,816.864,2273.557,821.878Z" transform="translate(-2100.964 -498.735)" fill="#0076af"/>
      <path id="Caminho_578" data-name="Caminho 578" d="M2275.255,825.792c-.722-6.339-1.056-12.736-2.769-18.929v0C2274.2,813.057,2274.533,819.455,2275.255,825.792Z" transform="translate(-2098.748 -498.736)" fill="#c47650"/>
      <path id="Caminho_579" data-name="Caminho 579" d="M2271.306,849.224l1.994-.024-1.994.024Z" transform="translate(-2099.565 -469.415)" fill="#c47650"/>
      <path id="Caminho_580" data-name="Caminho 580" d="M2272.885,849.261q2.3-.043,4.592-.09-2.294.046-4.592.09Z" transform="translate(-2098.472 -469.435)" fill="#c47650"/>
      <path id="Caminho_581" data-name="Caminho 581" d="M2239.645,849.662H2264.2A121.28,121.28,0,0,0,2239.645,849.662Z" transform="translate(-2121.492 -469.526)" fill="#d3dce6"/>
      <path id="Caminho_582" data-name="Caminho 582" d="M2239.645,849.407h0Z" transform="translate(-2121.492 -469.271)" fill="#d3dce6"/>
      <path id="Caminho_583" data-name="Caminho 583" d="M2272.18,849.214a2.989,2.989,0,0,1-2.136.176,2.989,2.989,0,0,0,2.136-.176Z" transform="translate(-2100.439 -469.405)" fill="#dc9364"/>
      <path id="Caminho_584" data-name="Caminho 584" d="M2254.952,849.512c.4.008.792.015,1.19.022A.76.76,0,0,0,2254.952,849.512Z" transform="translate(-2110.891 -469.39)" fill="#d3dce6"/>
      <path id="Caminho_585" data-name="Caminho 585" d="M2254.952,849.4l1.19.024v0C2255.745,849.414,2255.349,849.408,2254.952,849.4Z" transform="translate(-2110.891 -469.277)" fill="#d3dce6"/>
      <path id="Caminho_586" data-name="Caminho 586" d="M2240.122,636.167c9.324.113,18.65.1,27.976.088a2.273,2.273,0,0,0,2.572-2.307c.027-1.848-1.4-1.9-2.732-1.909-4.591-.017-9.183-.007-13.774-.01s-9.184-.025-13.774.01c-1.239.01-2.839-.273-3.045,1.547C2237.125,635.5,2238.7,636.149,2240.122,636.167Z" transform="translate(-2123.1 -619.822)" fill="#555"/>
      <path id="Caminho_587" data-name="Caminho 587" d="M2231.429,636.483a2.268,2.268,0,0,0,2.029-2.769,2.244,2.244,0,0,0-2.669-2.109c-1.261.1-2.229.8-2.108,2.16A2.957,2.957,0,0,0,2231.429,636.483Z" transform="translate(-2129.092 -620.118)" fill="#555"/>
      <path id="Caminho_588" data-name="Caminho 588" d="M2283.1,836.884c-4.641-35.911-8.9-71.872-13.305-107.813-.437-3.568-.78-7.161-1.484-10.68-2.408-12.044-17.8-19.012-26.71-12.178-7.677,12.7-13.162,26.46-19.368,39.871v0c7.8,5.111,15.629,10.179,23.389,15.348,6.8,4.527,6.745,4.563,2.212,11.553-5.768,8.9-12.1,17.445-16.865,26.966.184,11.071-.6,22.1-1.365,33.137l13.669,6.489,36.2,17.186C2283.1,850.575,2284.03,844.114,2283.1,836.884Z" transform="translate(-2133.554 -570.303)" fill="#ff481f"/>
      <path id="Caminho_589" data-name="Caminho 589" d="M2222.228,728.67h0c7.8,5.11,15.629,10.177,23.389,15.346-7.76-5.169-15.591-10.237-23.389-15.348Z" transform="translate(-2133.554 -552.889)" fill="#fefefe"/>
      <path id="Caminho_590" data-name="Caminho 590" d="M2226.584,780.072l13.669,6.489-13.669-6.489Z" transform="translate(-2130.537 -517.289)" fill="#fefefe"/>
      <path id="Caminho_591" data-name="Caminho 591" d="M2256.74,705.112c-5.017.884-7.3,4.765-9.248,8.776-4.206,8.661-8.148,17.45-12.31,26.131-6.026,12.569-11.979,25.177-18.283,37.6-2.121,4.177-4.257,8.346-6.367,12.527q-2.112,4.179-4.179,8.381-1.031,2.1-2.044,4.214-2.024,4.225-3.949,8.495l12.834,6.108c.073-1.427.215-2.852.207-4.275-.022-4.443.189-8.913-.212-13.324-.81-8.957,3.975-15.8,7.9-23.113,1.4-2.613,2.751-5.255,4.076-7.908,1.332-2.667,2.641-5.347,3.963-8.021,1.709-3.458,3.442-6.9,5.257-10.308q1.1-2.056,2.243-4.087c.25-.442.49-.89.744-1.33C2243.578,731.572,2249.063,717.81,2256.74,705.112Z" transform="translate(-2148.699 -569.202)" fill="#555"/>
      <path id="Caminho_592" data-name="Caminho 592" d="M2222.615,731.87c-1.815,3.4-3.548,6.85-5.258,10.308C2219.067,738.72,2220.8,735.274,2222.615,731.87Z" transform="translate(-2136.927 -550.671)" fill="#01adcb"/>
      <path id="Caminho_593" data-name="Caminho 593" d="M2221.788,730c.251-.442.491-.89.745-1.33h0C2222.279,729.109,2222.039,729.558,2221.788,730Z" transform="translate(-2133.858 -552.888)" fill="#01adcb"/>
      <path id="Caminho_594" data-name="Caminho 594" d="M2228.325,793.631c.76-11.034,1.549-22.066,1.365-33.137-1.511,1.391-2.918,3.087-3.06,5.047q-.12,1.663-.291,3.321c-.794,7.735-2.261,15.4-2.27,23.213l4.256,1.556Z" transform="translate(-2132.279 -530.848)" fill="#555"/>
      <path id="Caminho_595" data-name="Caminho 595" d="M2228.325,780.709l-4.256-1.555,4.256,1.555Z" transform="translate(-2132.279 -517.926)" fill="#01adcb"/>
      <path id="Caminho_596" data-name="Caminho 596" d="M2416.893,650.682a20.827,20.827,0,0,0-3.659-13.643,26.911,26.911,0,0,0-1.952-2.593c-.382-.452-.775-.9-1.188-1.324-.022-.024-.042-.047-.066-.071-.455-.471-.934-.922-1.424-1.362-.472-.425-.953-.841-1.453-1.234a25.011,25.011,0,0,0-15.255-5.641c-65.137.183-130.275.081-195.414.1a27.89,27.89,0,0,0-12.989,3.069q-1.133.594-2.19,1.29a24.723,24.723,0,0,0-3.889,3.173c-.337.337-.664.687-.98,1.046a24.861,24.861,0,0,0-1.975,2.535,25.683,25.683,0,0,0-1.388,2.288c-.04.076-.084.149-.125.225a28.274,28.274,0,0,0-3.108,12.137ZM2284.08,638.577c.207-1.82,1.806-1.537,3.045-1.547,4.59-.036,9.182-.014,13.774-.014s9.184,0,13.775.014c1.331,0,2.759.061,2.732,1.909a2.273,2.273,0,0,1-2.573,2.307c-9.326.017-18.651.026-27.975-.088C2285.441,641.14,2283.863,640.495,2284.08,638.577Zm-12.546-2.276a2.244,2.244,0,0,1,2.669,2.109,2.268,2.268,0,0,1-2.03,2.769,2.956,2.956,0,0,1-2.747-2.718C2269.3,637.1,2270.273,636.4,2271.534,636.3Z" transform="translate(-2169.837 -624.813)" fill="#e6e6e6"/>
    </g>
    <path id="Caminho_597" data-name="Caminho 597" d="M2169.9,848.422c-.025,5.442-.133,12.613-.042,18.053.277,16.506,11.773,27.815,28.2,27.826q42.061.025,84.122.042h0l8.574.069,42.388-.042h0l6.725.017q24.575-.056,49.15-.117c15.693-.056,26.414-8.854,28.456-24.259.226-1.694.353-3.4.417-5.12q.048-1.287.054-2.581c.025-4.042-.187-9.842-.191-13.888Zm123.915,33.805c-6.386.012-10.791-4.2-10.828-10.338-.035-5.961,4.634-11.1,10.223-11.245a11.014,11.014,0,0,1,11.365,10.573A10.621,10.621,0,0,1,2293.816,882.227Z" transform="translate(21.676 154.859)" fill="#e6e6e6"/>
    <g id="Grupo_356" data-name="Grupo 356" transform="translate(2438.539 953.598)">
      <path id="Caminho_598" data-name="Caminho 598" d="M2342.169,830.146a2.35,2.35,0,0,0-2.381-2.534q-4.221,0-8.441,0a11.663,11.663,0,0,0,.278-6.437c-.245-1.274-1-2.12-1.955-2.1a1.623,1.623,0,0,0-1.582,1.349,24.941,24.941,0,0,1-.474,2.769c-.607,2.537-3.847,5.887-5.9,7.055v12.393a8.6,8.6,0,0,0,4.508,1.031c2.543-.049,9.812-.007,11.128-.015a2.391,2.391,0,0,0,2.307-1.576,1.841,1.841,0,0,0-.962-2.3,2.091,2.091,0,0,0,2.117-1.461,1.918,1.918,0,0,0-1.181-2.216c1.073-.117,1.758-.4,2.017-1.362.306-1.137-.427-1.992-1.586-2.486A2.374,2.374,0,0,0,2342.169,830.146Zm-22.24-1.874h-3.276a.873.873,0,0,0-.874.873v14.021a.873.873,0,0,0,.874.873h3.276a.875.875,0,0,0,.876-.873V829.146A.875.875,0,0,0,2319.93,828.272Z" transform="translate(-2315.78 -819.068)" fill="#90e5ff"/>
    </g>
  </g>
</svg>
