<svg xmlns="http://www.w3.org/2000/svg" width="1357" height="630.793" viewBox="0 0 1357 630.793">
  <g id="Grupo_3664" data-name="Grupo 3664" transform="translate(21 -89.982)">
    <rect id="Retângulo_762" data-name="Retângulo 762" width="473.926" height="473.926" transform="translate(403.031 179.614)" fill="#f4f4f4"/>
    <text id="HUMA_NA" data-name="HUMA
NA" fill="none" stroke="#616161" transform="translate(433 386)" stroke-width="2" font-size="136" font-family="Montserrat-Bold, Montserrat" font-weight="700" opacity="0.413"><tspan x="-451.112" y="0">HUMA</tspan><tspan x="-214.064" y="113">NA</tspan></text>
    <text id="MO_DERNA" data-name="MO
DERNA" fill="none" stroke="#616161" transform="translate(815 386)" stroke-width="2" font-size="136" font-family="Montserrat-Bold, Montserrat" font-weight="700" opacity="0.413"><tspan x="0" y="0">MO</tspan><tspan x="0" y="113">DERNA</tspan></text>
    <g id="Grupo_335" data-name="Grupo 335" transform="translate(375.965 89.982)">
      <g id="Grupo_334" data-name="Grupo 334">
        <path id="Caminho_376" data-name="Caminho 376" d="M1126.983,479.908c-4.023-10.023-4.71-20.733-6.074-31.241-7.38-56.9-.816-111.817,24.309-164.263-11.783-3.581-17.49-12.835-21.73-23.1-4.943-11.964.659-21.943,13.289-24.681a58.982,58.982,0,0,1,17.737-.8,80.928,80.928,0,0,0,21.983-1.3c4.5-.331,8.973-1.474,13.509-.366,2.011,4.305,4.009,8.619,6.038,12.916,22.344,47.326,43.97,94.91,52.8,147.089a205.977,205.977,0,0,1,.51,25.548c-.175,4.554-1.722,7.237-6.783,8.027-17.271,2.7-34.477,5.809-51.709,8.762-4.3-8.7-8.828-17.3-12.809-26.137-2.87-6.372-5.008-13.076-7.892-20.74-2.314,12.225-4.879,23.021-6.217,33.965-.711,5.809-5.65,11.375-1.6,17.612a1.742,1.742,0,0,0-.235,1.125c-4.088-.046-3.134,3.61-3.79,5.675-2.346,7.386-4.22,14.924-6.353,22.379-.771,2.694-1.553,5.488-4.839,6.3C1140.272,476.889,1133.662,478.614,1126.983,479.908Z" transform="translate(-975.8 -110.708)" fill="#00c5ff"/>
        <path id="Caminho_377" data-name="Caminho 377" d="M1187.014,356.7c17.232-2.953,34.437-6.06,51.709-8.762,5.06-.791,6.608-3.473,6.783-8.027a206.38,206.38,0,0,0-.508-25.548l10.744-.2a49.825,49.825,0,0,1-.468,7.109c-8,38.566-16.63,76.974-27.525,114.854-3.2,11.124-7.926,21.87-9.021,33.565-4.2,6.47-5.466,14.043-7.868,21.171-13.87,41.168-30.1,81.413-47.111,121.358-1.679,3.939-4.14,5.52-8.2,5.068-9.75-.343-19.5-.649-29.24.165-5.867.462-4.415-3.268-3.581-6.434,7.06-26.814,12.663-53.953,17.805-81.184,4.477-23.718,8.173-47.569,10.75-71.583.731-6.816,1.88-13.591,2.549-20.414.265-2.69,1.338-5.721-1.255-8.055q.705-1.293,1.414-2.587c.468-1.043,1.3-2.071,1.352-3.134,1.025-20.509,1.959-41.025,2.913-61.538a1.755,1.755,0,0,1,.237-1.125C1168.165,360.841,1177.539,358.457,1187.014,356.7Z" transform="translate(-971.955 -30.915)" fill="#ff5630"/>
        <path id="Caminho_378" data-name="Caminho 378" d="M1170.542,470.885c1.1-11.7,5.823-22.441,9.021-33.565,10.895-37.88,19.528-76.289,27.525-114.854a49.542,49.542,0,0,0,.466-7.109c3.017-1.543,5.944-3.855,9.465-1.113a678.107,678.107,0,0,1,18.2,94.432c2.475,21.491,4.845,43.024,6.227,64.607,2.905,45.4,3.63,90.868,2.979,136.361-.06,4.258-.259,7.773-5.839,7.35a77.437,77.437,0,0,0-27.674.135c-4.489.255-5.285-3.017-6.086-6.329q-15.868-65.507-31.763-131.008C1172.34,476.8,1171.389,473.854,1170.542,470.885Z" transform="translate(-923.77 -32.103)" fill="#ff7f63"/>
        <path id="Caminho_379" data-name="Caminho 379" d="M1249.015,267.941c-13.078-1.049-22.089-7.633-25.255-18.454-4.829-16.5.2-29.383,16.288-41.146-4.8-3.766-10.144-3.594-15.531-2.786-9.72,1.458-18.683,5.431-27.842,8.714-12.922,4.632-25.544,5.122-37.835-2.005-4.734-2.744-9.577-2.2-14.392-.056-8.565,3.806-15.848,9.593-23.341,15.057-14.842,10.823-31.263,15.838-49.681,13.47-22.3-2.868-31.534-22.581-19.48-41.569,12.639-19.91,36.14-28.5,57.157-18.014,21.123,10.54,40.391,9.411,60.445-1.434a64.321,64.321,0,0,1,30.118-7.784c20.856-.229,35.57,10.051,41.559,30.09,1.507,5.048,3.527,6.374,8.378,5.725,11.17-1.494,22.318-1.972,32.92,3.077,5.235,2.5,8.82,5.791,6.434,12.257-9.3,2.262-12.926,11.253-19.59,16.654-3.361,2.724-6.074,5.116-10.441,1.886-2.3-1.7-4.9-1.278-7.153.743-2.533,2.278-3.732,5.08-2.583,8.276a41.182,41.182,0,0,0,3.77,6.8C1256.041,262.612,1255.68,266.452,1249.015,267.941Z" transform="translate(-1046.623 -171.93)" fill="#616161"/>
        <path id="Caminho_380" data-name="Caminho 380" d="M1303.084,385.581c-2,3.732-5.006,4.777-9.282,4.767-20.505-.052-40.176-3.782-58.9-12.227a333.874,333.874,0,0,0-19.93-38.579c-9.244-14.983-18.484-29.991-27.083-45.348-10.013-17.885-18.331-36.542-21.82-56.982,19.394,12.574,34.394,29.807,49.54,46.866,17.52,19.733,34.181,40.264,54.023,57.828,11.249,9.957,23.236,18.855,36.608,25.815,1.771.92,4.266,1.328,4.409,4.1A61.337,61.337,0,0,0,1303.084,385.581Z" transform="translate(-928.208 -107.209)" fill="#00c5ff"/>
        <path id="Caminho_381" data-name="Caminho 381" d="M1177.84,240.792c3.489,20.44,11.807,39.1,21.82,56.982,8.6,15.358,17.839,30.365,27.083,45.348a333.952,333.952,0,0,1,19.93,38.579c.143,5.028-2.085,7.717-7.282,8.344-2.133.257-4.666.741-6.157,2.882-3.523-2.74-6.45-.428-9.467,1.115l-10.742.2c-8.828-52.179-30.455-99.763-52.8-147.089-2.029-4.3-4.026-8.611-6.036-12.916l12.233-.408C1172.031,233.195,1177.113,233.422,1177.84,240.792Z" transform="translate(-939.981 -110.789)" fill="#404040"/>
        <path id="Caminho_382" data-name="Caminho 382" d="M1173.15,269.5l-12.233.408c-4.538-1.107-9.015.036-13.511.366q.842-13.9,1.691-27.8c6.669-1.49,7.03-5.329,3.949-10.5a41.183,41.183,0,0,1-3.77-6.8c-1.149-3.2.05-6,2.583-8.276,2.25-2.021,4.857-2.441,7.153-.743,4.367,3.23,7.079.838,10.441-1.886,6.663-5.4,10.288-14.392,19.589-16.654,10.421,16.2,11.807,34,8.872,52.414-1,6.259-5.5,8.539-11.546,7.609-3.027-.464-5.96-1.569-8.991-1.972-2.449-.327-5.13-3.481-7.069-1.089-1.492,1.84.52,4.863,1.141,7.336C1172.078,264.429,1172.588,266.972,1173.15,269.5Z" transform="translate(-946.708 -146.464)" fill="#915c3b"/>
        <path id="Caminho_383" data-name="Caminho 383" d="M1221.058,473.254c1.759-.689,3.246-.012,4.67.94,14.26,9.539,30.2,14.756,46.832,18.18,3.333.687,6.817.753,5.882,5.885-.81,4.455-2.8,6.024-7.571,5.968q-36.416-.415-72.838-.014c-6.3.072-8.712-2.23-8.264-8.314.386-5.219.462-10.459.741-15.686.131-2.467.3-5.046,4.013-3.871C1203.721,478.362,1212.419,476.076,1221.058,473.254Z" transform="translate(-904.76 126.524)" fill="#004c78"/>
        <path id="Caminho_384" data-name="Caminho 384" d="M1153.24,472.855c14.613,10.367,31.152,15.937,48.491,19.56,3.057.639,7.189.235,6.35,5.532-.723,4.564-2.622,6.518-7.9,6.436-24.265-.378-48.543-.309-72.812-.066-5.883.06-8.362-2.009-7.99-7.832.351-5.458.381-10.939.775-16.393.114-1.573-.508-4.262,2.768-3.678C1133.435,478.758,1143.319,475.655,1153.24,472.855Z" transform="translate(-974.53 126.408)" fill="#004c78"/>
        <path id="Caminho_385" data-name="Caminho 385" d="M1166.417,386.021q-.708,1.293-1.414,2.587c-3.435.785-5.994-1.012-8.414-2.993-4.64-3.8-9.095-3.356-13.569.285-3.7,3.005-7.444,5.944-11.192,8.882a19.762,19.762,0,0,1-15.411,4.18c-2.672-.36-5.331-.886-6.582-3.575-1.4-3.019.948-4.845,2.653-6.781,5.668-6.432,11.467-12.755,16.983-19.313,2.577-3.065,5.273-6.2,6.092-10.359,6.679-1.294,13.289-3.019,20.139-3.228C1152.708,368.132,1159.339,377.155,1166.417,386.021Z" transform="translate(-984.379 10.266)" fill="#935e3d"/>
        <path id="Caminho_386" data-name="Caminho 386" d="M1234.871,318.566a61.33,61.33,0,0,1,7.561-13.757c8.342,3.851,17.753,2.629,26.3,5.554,3.131,1.071,6.353,1.876,9.517,2.852,1.83.566,4,1.241,3.925,3.477-.088,2.547-2.571,2.264-4.355,2.581-4.66.826-9.35,1.513-13.984,2.467-4.27.878-5.715,3.085-2.828,7.024,1.275,1.736,2.742,4.036.667,5.68-1.9,1.5-3.983-.534-5.8-1.48C1248.3,329.016,1242.7,322.156,1234.871,318.566Z" transform="translate(-859.994 -40.194)" fill="#945f3f"/>
        <path id="Caminho_387" data-name="Caminho 387" d="M1219.968,481.113c-8.639,2.822-17.337,5.108-26.535,3.087q-1.308-8.92-2.616-17.837a77.391,77.391,0,0,1,27.674-.137C1219.1,471.175,1218.28,476.269,1219.968,481.113Z" transform="translate(-903.67 118.666)" fill="#794b32"/>
        <path id="Caminho_388" data-name="Caminho 388" d="M1151.458,479.445c-9.921,2.8-19.8,5.9-30.319,3.559,3.552-4.853,3.933-10.867,5.962-16.278,9.744-.814,19.492-.508,29.242-.165Q1153.9,473,1151.458,479.445Z" transform="translate(-972.748 119.818)" fill="#915c3c"/>
        <path id="Caminho_389" data-name="Caminho 389" d="M1169.6,358.866c-9.475,1.752-18.849,4.136-28.519,4.7-4.049-6.237.89-11.8,1.6-17.612,1.338-10.945,3.9-21.74,6.217-33.965,2.884,7.665,5.022,14.368,7.892,20.74C1160.772,341.57,1165.3,350.165,1169.6,358.866Z" transform="translate(-954.541 -33.076)" fill="#0076af"/>
      </g>
    </g>
  </g>
</svg>
