<svg id="Grupo_342" data-name="Grupo 342" xmlns="http://www.w3.org/2000/svg" width="467.866" height="362.175" viewBox="0 0 467.866 362.175">
  <rect id="Retângulo_769" data-name="Retângulo 769" width="362.175" height="362.175" transform="translate(35.26 0)" fill="#555"/>
  <g id="Grupo_341" data-name="Grupo 341" transform="translate(0 24.61)">
    <g id="Grupo_340" data-name="Grupo 340">
      <path id="Caminho_404" data-name="Caminho 404" d="M1648.048,766.248l-14.563,9.023c-1.07-1.484-2.153-2.958-3.207-4.453-5.515-7.839-10.3-16.183-16.366-23.638-2.8-3.082-2.15-5.294.881-8.218a181.966,181.966,0,0,1,31.9-24.727c.968-.171,1.927-.356,2.353-1.422l.794-.479-.081.113c.788.081,1.581.172,1.813-.885l-.045.036,21.444-6.941c27.286-3.288,52,5.048,75.948,16.824-3.2,7.395-6.391,14.8-9.623,22.176a3.866,3.866,0,0,0-.022,3.618c2.47,4.925,4.818,9.912,7.212,14.876,1.978,6.926,5.156,13.466,6.608,20.562-14.044,5.1-28.073,10.24-42.135,15.292-13.655,4.907-27.341,9.724-41.014,14.581q-8.346-17.842-16.678-35.692c-.709-1.526-1.26-3.127-1.884-4.694l4.925-10.5C1653.237,763.1,1650.132,763.844,1648.048,766.248Z" transform="translate(-1398.771 -676.418)" fill="#ff5630"/>
      <path id="Caminho_405" data-name="Caminho 405" d="M1564.854,852.455c6.725-10.9,13.415-21.83,20.2-32.7,2.014-3.228,5.188-5.261,8.393-7.143,17.531-10.288,36.563-17.124,55.568-24,4.533-1.64,8.957-3.675,13.782-4.428,6.3,8.58,13.774,16.167,20.623,24.282,6.761,8.011,13.6,15.961,20.4,23.937-14.543,6-29.75,9.515-45.24,11.854-14.157,2.137-28.363,2.761-42.524.024-2.564-.5-3.142.861-3.937,2.667-3.8,8.628-8.461,16.734-14.9,23.716Q1581.042,861.56,1564.854,852.455Z" transform="translate(-1422.433 -636.247)" fill="#ffd788"/>
      <path id="Caminho_406" data-name="Caminho 406" d="M1671.154,846.3c-6.8-7.975-13.643-15.925-20.4-23.937-6.85-8.115-14.321-15.7-20.623-24.282,8.583-4.017,17.741-6.515,26.524-10.009,1.438-.572,2.86-1.178,4.29-1.768,13.673-4.857,27.359-9.674,41.014-14.581,14.061-5.052,28.091-10.192,42.135-15.292,2.51,6.651,3.01,13.559,2.644,20.575-.437,1.924-.824,3.864-1.318,5.776-3.567,13.79-12.109,24.237-22.464,33.484-8.426,7.524-17.986,13.407-27.59,19.234C1687.328,839.182,1679.71,843.795,1671.154,846.3Z" transform="translate(-1389.762 -650.139)" fill="#00c5ff"/>
      <path id="Caminho_407" data-name="Caminho 407" d="M1645.348,732.753c6.068,7.455,10.852,15.8,16.366,23.638,1.054,1.5,2.137,2.97,3.207,4.453q-33.368,22.119-66.73,44.243c-1.179.782-2.3,1.646-3.453,2.471a61.707,61.707,0,0,0-21.21,18.167c-1.832,2.483-3.91,4.985-3.463,8.455a46.277,46.277,0,0,1-1.786,9.149c-3.12,8.87-8.949,10.177-15.428,3.414a34.248,34.248,0,0,1-3.507-11.245c-.434-15.849,6.248-28.395,17.375-39.282,19.894-19.468,41.86-36.374,64.107-52.961C1635.614,739.684,1640.5,736.249,1645.348,732.753Z" transform="translate(-1430.206 -661.992)" fill="#ffd788"/>
      <path id="Caminho_408" data-name="Caminho 408" d="M1723.731,794.808a264.227,264.227,0,0,1,22.346,60.13c-.306,1.628.839,2.6,1.68,3.7q9.516,12.429,19.045,24.846a38.068,38.068,0,0,1-15.888,15.022c-6.215,3.07-12.042,2.516-17.394-2.207a96.747,96.747,0,0,1-14.5-16.746c-12.995-18.229-23.725-37.812-34.26-57.5C1698.406,813.911,1712.156,805.915,1723.731,794.808Z" transform="translate(-1362.415 -630.931)" fill="#ffd788"/>
      <path id="Caminho_409" data-name="Caminho 409" d="M1704.223,756.3c-2.394-4.964-4.742-9.951-7.212-14.876a3.866,3.866,0,0,1,.022-3.618c3.232-7.381,6.421-14.782,9.623-22.176,10.393,4.637,20.839,9.159,31.157,13.959,5.309,2.47,8.489,6.91,10.241,12.511,5.611,17.925,11.449,35.78,16.928,53.745,1.574,5.159,3.951,8.946,9.4,10.538a18,18,0,0,1,7.646,4.57c3.966,3.956,3.289,7.932-1.8,10.6-10.118,5.3-22.7,2.865-29.592-6.232a138.206,138.206,0,0,1-23.753-49.3c-.632-2.441-1.364-3.532-3.915-4C1716.525,760.818,1710.36,758.57,1704.223,756.3Z" transform="translate(-1356.504 -670.565)" fill="#ffd788"/>
      <path id="Caminho_410" data-name="Caminho 410" d="M1589.078,801.226a34.254,34.254,0,0,0,3.507,11.245c-15.515,10.873-31.216,21.5-46.474,32.718-8.3,6.1-13.676,14.707-17.55,24.313-6.7,16.612-19.382,26.076-37,27.461-15.666,1.233-25.016-9.9-20.473-25.212,4.476-15.089,22.026-28.066,38.319-28.125a59.024,59.024,0,0,0,34.767-11.17C1559.069,821.941,1574.1,811.626,1589.078,801.226Zm-75.3,51.728-.782-.8c-4.593-.914-8.723,1.781-13.208,1.7-2.5,1.025-5.208,1.7-6.817,4.181-.711.03-1.469-.026-1.7.908-2.651,1.166-4.848,2.8-5.8,5.69-2.384,3.691-6.283,6.485-6.721,11.331a6.4,6.4,0,0,0,.849,7.377c-.027,1.055.59,1.429,1.535,1.458.969,3.2,3.591,3.222,6.216,3.232,4.836,2.694,8.657-1.831,13.112-1.844,2.839-.458,5.519-1.173,6.794-4.176.788.126,1.553.205,1.729-.876,3.034-.528,4.674-2.642,5.921-5.2,2.282-3.883,6.088-6.932,6.487-11.845.236-2.365.5-4.733-.852-6.9a1.608,1.608,0,0,0-1.637-1.238c-.77-2.663-2.761-3.228-5.2-3.025Z" transform="translate(-1469.94 -627.719)" fill="#4bd6ff"/>
      <path id="Caminho_411" data-name="Caminho 411" d="M1576.1,829.683l32.373,18.212c-13.358,16.584-26.816,33.085-40.868,49.091-6.8-.078-13.6-.209-20.394-.209-2.516,0-4.057-.534-2.561-3.358,1.54-2.9.8-4.82-2.248-5.92Z" transform="translate(-1433.673 -613.475)" fill="#fcfcfd"/>
      <path id="Caminho_412" data-name="Caminho 412" d="M1746.367,877.6q-9.523-12.422-19.045-24.846c-.842-1.1-1.987-2.077-1.681-3.7a454.7,454.7,0,0,1,29.621-39.437c.9-1.071,1.928-2.03,2.9-3.042,3.576,3.648,6.949,7.53,10.783,10.882,4.2,3.669,6.126,7.644,3.775,13.04-7.443,15.5-15.274,30.791-24.786,45.157C1747.475,876.343,1746.892,876.952,1746.367,877.6Z" transform="translate(-1341.979 -625.043)" fill="#fcfcfd"/>
      <path id="Caminho_413" data-name="Caminho 413" d="M1729.318,807.153c-11.575,11.107-25.325,19.1-38.969,27.244-2.794,1.311-5.663,2.494-8.362,3.984-2.143,1.182-3.288.651-4.248-1.445-1.286-2.809-2.749-5.535-4.137-8.3,9.6-5.827,19.163-11.71,27.589-19.234,10.355-9.248,18.9-19.695,22.464-33.484.493-1.912.881-3.852,1.317-5.776,2.291,8.182,4.3,16.456,6.977,24.507C1733.6,799.616,1733.266,803.627,1729.318,807.153Z" transform="translate(-1368.001 -643.276)" fill="#0097ce"/>
      <path id="Caminho_414" data-name="Caminho 414" d="M1558.079,868.214c3.048,1.1,3.787,3.015,2.248,5.92-1.5,2.824.045,3.358,2.561,3.358,6.8,0,13.595.13,20.394.209q-3.493,5.145-6.993,10.291l-3.049,3.444-62.177-.191c.68-5.375,4.781-8.763,11.385-9.35A72.319,72.319,0,0,0,1542,877.726c2.693-1.028,5.427-2.177,7.256-4.356C1551.649,870.516,1554.346,868.583,1558.079,868.214Z" transform="translate(-1449.357 -594.189)" fill="#4bd6ff"/>
      <path id="Caminho_415" data-name="Caminho 415" d="M1761.854,835.41c2.351-5.4.42-9.371-3.775-13.04-3.834-3.352-7.207-7.234-10.783-10.882a114.486,114.486,0,0,1,12.195-14.743c3.135,2.9,6.281,5.774,9.4,8.684,9.473,8.84,18.209,18.455,28.177,26.774-4.191,4.295-5.747,4.559-11.057,2.015a28.682,28.682,0,0,0-13.074-3.033c-2.2.045-4.394.522-5.187,2.892C1766.45,837.951,1764.422,837.64,1761.854,835.41Z" transform="translate(-1331.114 -629.961)" fill="#4bd6ff"/>
      <path id="Caminho_416" data-name="Caminho 416" d="M1642.549,717.436c-.426,1.067-1.385,1.251-2.353,1.422q-1.2-3.509-2.4-7.019c1.017-1.721,2.167-3.406,1.769-5.78-1.828,1.287-2.864,3.291-5.177,3.175a13.5,13.5,0,0,1-9.275-6.844,34.479,34.479,0,0,1,7.055-5.465,11.015,11.015,0,0,0,1.217,1.181c1.052.755,1.305,3.078,3.106,2.2,1.7-.833-.056-2.212-.1-3.358-.038-.9-.006-1.738.98-2.087a2.01,2.01,0,0,1,2.755,1.262c1.7,4.068,4.548,3.45,7.642,1.951q5.107,3.986,10.213,7.974c-4.209,3.532-9.725,5.4-12.953,10.177l.045-.036a1.891,1.891,0,0,0-1.813.885l.083-.111Z" transform="translate(-1392.27 -681.043)" fill="#ffd788"/>
      <path id="Caminho_417" data-name="Caminho 417" d="M1511.2,883.562l62.177.191c-1.46,3.7-3.939,5.024-8.119,4.961-18.029-.271-36.065-.125-54.1-.132A8.638,8.638,0,0,1,1511.2,883.562Z" transform="translate(-1449.49 -586.507)" fill="#fcfcfd"/>
      <path id="Caminho_418" data-name="Caminho 418" d="M1793,833.517c-9.968-8.319-18.7-17.934-28.177-26.774-3.118-2.91-6.265-5.788-9.4-8.684,2.884-5.058,2.875-5.049,6.867-1.08,10.168,10.108,20.272,20.283,30.572,30.255C1795.306,829.6,1795.819,831.353,1793,833.517Z" transform="translate(-1327.046 -631.274)" fill="#fcfcfd"/>
      <path id="Caminho_419" data-name="Caminho 419" d="M1508.533,804.088a164.229,164.229,0,0,1-11.448,15.352c-.22-2.716-1.107-4.934-3.915-6.043-3.214-1.271-5.061.8-7.053,2.63a186.763,186.763,0,0,1,.767-19.779A29.783,29.783,0,0,0,1508.533,804.088Z" transform="translate(-1461.849 -630.21)" fill="#b8b8b8"/>
      <path id="Caminho_420" data-name="Caminho 420" d="M1563.167,809.228c-.447-3.471,1.631-5.972,3.463-8.455a61.709,61.709,0,0,1,21.21-18.167c3.651,4.5,3.346,7.219-1.31,10.466C1578.763,798.489,1570.956,803.846,1563.167,809.228Z" transform="translate(-1423.308 -637.038)" fill="#4bd6ff"/>
      <path id="Caminho_421" data-name="Caminho 421" d="M1624.4,702.492c-2.725.168-5.3-.094-5.963-3.379-.6-2.958,1.2-4.043,3.724-5.22,2.9-1.356,5.343-3.714,7.978-5.646,5.265-3.862,7.131-3.619,11.352,1.492Z" transform="translate(-1395.669 -685.596)" fill="#858585"/>
      <path id="Caminho_422" data-name="Caminho 422" d="M1508.312,805.155a29.783,29.783,0,0,1-21.648-7.839c-.663-3.19,1.7-3.321,3.628-3.151a31.424,31.424,0,0,1,16.953,6.271C1508.715,801.579,1510.807,802.949,1508.312,805.155Z" transform="translate(-1461.627 -631.277)" fill="#858585"/>
      <path id="Caminho_423" data-name="Caminho 423" d="M1622.375,701.111l17.091-12.755c1.766.993,3.319,2.147,3.367,4.443l-9.29,7.3a34.48,34.48,0,0,0-7.056,5.465C1623.877,705.224,1623.226,703.075,1622.375,701.111Z" transform="translate(-1393.641 -684.214)" fill="#00c5ff"/>
      <path id="Caminho_424" data-name="Caminho 424" d="M1486.2,810.438c1.991-1.835,3.839-3.9,7.053-2.63,2.808,1.109,3.694,3.327,3.915,6.043-1.4,3.429-3.771,5.461-7.561,4.226C1485.914,816.874,1485.555,813.785,1486.2,810.438Z" transform="translate(-1461.931 -624.62)" fill="#ff5630"/>
      <path id="Caminho_425" data-name="Caminho 425" d="M1638.387,712.849c3.228-4.778,8.744-6.644,12.953-10.177,4.309-2.8,6.68-.518,8.491,3.235Z" transform="translate(-1385.627 -677.672)" fill="#e24816"/>
      <path id="Caminho_426" data-name="Caminho 426" d="M1629.818,698.614l9.29-7.3,6.307,8.442c-3.093,1.5-5.944,2.117-7.641-1.951a2.01,2.01,0,0,0-2.755-1.262c-.986.35-1.018,1.184-.98,2.087.046,1.146,1.8,2.526.1,3.358-1.8.881-2.054-1.442-3.106-2.2A11.027,11.027,0,0,1,1629.818,698.614Z" transform="translate(-1389.916 -682.732)" fill="#858585"/>
      <path id="Caminho_427" data-name="Caminho 427" d="M1636.066,746.978c2.084-2.4,5.189-3.147,8.262-4.548l-2.785,5.938-2.139,4.56Q1637.735,749.952,1636.066,746.978Z" transform="translate(-1386.788 -657.148)" fill="#912e00"/>
      <path id="Caminho_428" data-name="Caminho 428" d="M1631.3,705.442c2.312.116,3.349-1.888,5.177-3.175.4,2.374-.752,4.059-1.769,5.78C1633.887,706.763,1633.425,705.013,1631.3,705.442Z" transform="translate(-1389.176 -677.251)" fill="#190838"/>
      <path id="Caminho_429" data-name="Caminho 429" d="M1637.209,709.905a1.891,1.891,0,0,1,1.813-.885C1638.791,710.078,1638,709.986,1637.209,709.905Z" transform="translate(-1386.216 -673.878)" fill="#e24816"/>
      <path id="Caminho_430" data-name="Caminho 430" d="M1636.734,710.008l.8-.477Q1637.131,709.767,1636.734,710.008Z" transform="translate(-1386.454 -673.615)" fill="#e24816"/>
      <path id="Caminho_431" data-name="Caminho 431" d="M1475.807,859.036c.438-4.845,4.337-7.639,6.723-11.329,3.107,3.183,4.375-.9,6.293-1.789,2.808-1.295-.507-2.539-.49-3.9.229-.933.987-.878,1.7-.906.855,1.367,1.531,3.589,3.6,1.5,1.537-1.548,5.924-1.69,3.213-5.686,4.485.086,8.615-2.609,13.206-1.7q.391.4.783.8l-.073-.034c1.363,1.645,1.1,6.077,5.2,3.025a1.611,1.611,0,0,1,1.639,1.238c-5.387,3-.174,4.691.85,6.9-.4,4.913-4.2,7.962-6.488,11.844-2.727-3.817-3.879.641-5.672,1.221-2.6.842-1.2,2.569-.247,3.984-.176,1.082-.941,1-1.732.875-.953-1.915-2.357-2.581-3.84-.779-1.207,1.466-5.414,1.3-2.951,4.956-4.455.014-8.276,4.538-13.112,1.844-1.82-1.564-1.677-6.9-6.217-3.232-.945-.03-1.562-.4-1.535-1.458,2.564-1.074,3.537-2.531,1.245-4.872C1477.143,860.766,1476.5,859.875,1475.807,859.036Zm29.951-13.146c.8.075,6.086-3.973,5.772-4.469-1.248-1.975-2.016-5.1-4.3-5.32-2.144-.208-4.125,2.08-5.753,3.817C1501.056,840.369,1505.054,845.824,1505.758,845.89Zm-14.41,1.206c-1.226.084-5.966,3.778-5.987,4.328-.03.84,4.13,6.062,4.53,5.716,1.828-1.577,5.423-2,5.231-4.743C1494.984,850.433,1493.075,848.276,1491.348,847.1Zm5.245,7.765c-1.742,2.008-5.552,2.2-5.193,5.024.237,1.865,1.8,5.136,4.266,4.941,1.981-.158,5.183-1.918,5.175-4.081C1500.833,858.655,1498.735,856.425,1496.593,854.862Zm6.967,4.748c.933.008,5.843-4.19,5.465-4.716-1.342-1.861-1.976-5.108-4.392-5.079-2.073.026-4.238,1.94-5.587,3.964C1498.689,854.315,1502.923,859.606,1503.56,859.609Zm13.771-10.1c-1.557-2.081-2.323-4.538-4.569-5.659-.863-.431-5.894,4.026-5.464,4.659,1.3,1.907,1.985,5.2,4.415,5.084C1513.7,853.5,1515.843,851.514,1517.331,849.509Zm-28.45,10.81c-2.21,1.853-4.635,2.572-5.837,4.718-.4.71,3.669,5.834,4.41,5.83.99-.006,5.825-4.119,5.456-4.719C1491.7,864.184,1490.3,862.342,1488.881,860.319Zm-.967-1.759c-2.075-2.119-2.586-5.708-5.165-5.56a6.744,6.744,0,0,0-5.283,4.229c-.381,1.061,3.889,5.759,4.619,5.322C1484.054,861.375,1485.886,859.972,1487.915,858.56Zm9.932-6.755c1.96-1.879,5.393-2.462,5.34-4.715-.048-2.08-1.85-5.486-4.246-5.384-1.858.078-5.375,1.723-5.163,4.47C1493.929,848.145,1495.908,850.223,1497.847,851.8Z" transform="translate(-1467.003 -610.793)" fill="#e3eaf5"/>
      <path id="Caminho_432" data-name="Caminho 432" d="M1486.09,839.689c-.016,1.364,3.3,2.608.491,3.9-1.918.885-3.186,4.971-6.293,1.789C1481.241,842.485,1483.438,840.855,1486.09,839.689Z" transform="translate(-1464.761 -608.466)" fill="#555"/>
      <path id="Caminho_433" data-name="Caminho 433" d="M1492.1,836.3c2.712,4-1.676,4.137-3.213,5.686-2.072,2.086-2.747-.137-3.6-1.5C1486.894,838,1489.6,837.323,1492.1,836.3Z" transform="translate(-1462.258 -610.164)" fill="#555"/>
      <path id="Caminho_434" data-name="Caminho 434" d="M1496.371,856.725c-.953-1.415-2.351-3.142.247-3.984,1.793-.581,2.946-5.039,5.672-1.221C1501.045,854.082,1499.405,856.2,1496.371,856.725Z" transform="translate(-1457.332 -603.311)" fill="#555"/>
      <path id="Caminho_435" data-name="Caminho 435" d="M1490.53,859.85c-2.462-3.655,1.745-3.49,2.952-4.956,1.483-1.8,2.887-1.136,3.84.779C1496.049,858.677,1493.369,859.393,1490.53,859.85Z" transform="translate(-1460.014 -601.384)" fill="#555"/>
      <path id="Caminho_436" data-name="Caminho 436" d="M1476.073,851.032c.695.839,1.336,1.73,2.095,2.5,2.291,2.341,1.319,3.8-1.245,4.872A6.4,6.4,0,0,1,1476.073,851.032Z" transform="translate(-1467.27 -602.789)" fill="#555"/>
      <path id="Caminho_437" data-name="Caminho 437" d="M1477.4,857.341c4.539-3.669,4.4,1.669,6.217,3.232C1480.987,860.563,1478.365,860.54,1477.4,857.341Z" transform="translate(-1466.208 -600.263)" fill="#555"/>
      <path id="Caminho_438" data-name="Caminho 438" d="M1505.311,845.418c-1.025-2.21-6.238-3.9-.85-6.9C1505.814,840.685,1505.547,843.053,1505.311,845.418Z" transform="translate(-1453.864 -609.053)" fill="#555"/>
      <path id="Caminho_439" data-name="Caminho 439" d="M1504.3,838.714c-4.095,3.052-3.835-1.38-5.2-3.025C1501.54,835.486,1503.531,836.05,1504.3,838.714Z" transform="translate(-1455.343 -610.488)" fill="#555"/>
      <path id="Caminho_440" data-name="Caminho 440" d="M1499.413,835.965q-.391-.4-.783-.8Q1499.022,835.568,1499.413,835.965Z" transform="translate(-1455.58 -610.73)" fill="#0a41ac"/>
      <path id="Caminho_441" data-name="Caminho 441" d="M1497.2,845.54c-.7-.066-4.7-5.52-4.278-5.971,1.628-1.738,3.609-4.026,5.753-3.817,2.281.221,3.049,3.345,4.3,5.32C1503.291,841.567,1498,845.615,1497.2,845.54Z" transform="translate(-1458.451 -610.443)" fill="#555"/>
      <path id="Caminho_442" data-name="Caminho 442" d="M1488.161,843.075c1.727,1.179,3.636,3.337,3.774,5.3.192,2.747-3.4,3.166-5.231,4.743-.4.347-4.56-4.875-4.53-5.716C1482.2,846.853,1486.935,843.159,1488.161,843.075Z" transform="translate(-1463.817 -606.772)" fill="#555"/>
      <path id="Caminho_443" data-name="Caminho 443" d="M1491.4,848.25c2.143,1.563,4.24,3.793,4.248,5.884.008,2.164-3.194,3.924-5.175,4.081-2.465.2-4.029-3.076-4.266-4.941C1485.847,850.451,1489.657,850.258,1491.4,848.25Z" transform="translate(-1461.81 -604.181)" fill="#555"/>
      <path id="Caminho_444" data-name="Caminho 444" d="M1495.815,854.682c-.636,0-4.871-5.294-4.514-5.831,1.349-2.024,3.514-3.939,5.587-3.964,2.416-.028,3.051,3.219,4.392,5.079C1501.658,850.492,1496.748,854.689,1495.815,854.682Z" transform="translate(-1459.259 -605.865)" fill="#555"/>
      <path id="Caminho_445" data-name="Caminho 445" d="M1506.835,846.58c-1.488,2-3.633,3.987-5.618,4.084-2.429.117-3.118-3.177-4.415-5.084-.431-.633,4.6-5.09,5.464-4.659C1504.513,842.043,1505.278,844.5,1506.835,846.58Z" transform="translate(-1456.507 -607.864)" fill="#555"/>
      <path id="Caminho_446" data-name="Caminho 446" d="M1486.476,851.887c1.419,2.023,2.821,3.865,4.029,5.828.369.6-4.466,4.713-5.456,4.719-.741,0-4.809-5.12-4.41-5.83C1481.841,854.459,1484.266,853.74,1486.476,851.887Z" transform="translate(-1464.599 -602.361)" fill="#555"/>
      <path id="Caminho_447" data-name="Caminho 447" d="M1487.369,852.571c-2.029,1.412-3.861,2.815-5.829,3.991-.729.437-5-4.262-4.619-5.322a6.744,6.744,0,0,1,5.283-4.228C1484.784,846.863,1485.294,850.452,1487.369,852.571Z" transform="translate(-1466.458 -604.804)" fill="#555"/>
      <path id="Caminho_448" data-name="Caminho 448" d="M1491.856,849.582c-1.939-1.582-3.918-3.66-4.07-5.629-.212-2.747,3.306-4.392,5.164-4.47,2.4-.1,4.2,3.3,4.246,5.384C1497.248,847.12,1493.815,847.7,1491.856,849.582Z" transform="translate(-1461.012 -608.57)" fill="#555"/>
    </g>
  </g>
</svg>
