<svg xmlns="http://www.w3.org/2000/svg" width="464.285" height="530.15" viewBox="0 0 464.285 530.15">
  <g id="Grupo_686" data-name="Grupo 686" transform="translate(-2545.35 -627.574)">
    <rect id="Retângulo_805" data-name="Retângulo 805" width="203.724" height="203.724" transform="translate(2805.911 951.953)" fill="#555"/>
    <g id="Grupo_353" data-name="Grupo 353" transform="translate(2545.35 627.574)">
      <g id="Grupo_352" data-name="Grupo 352">
        <path id="Caminho_464" data-name="Caminho 464" d="M2747.014,681.411c11.318.548,22.238-1.984,33.192-4.278,4.91-1.028,9.855-1.859,14.884-.879,12.285,2.4,17.672,9.722,15.745,22.066a51.794,51.794,0,0,1-9.615,22.275,13.63,13.63,0,0,1-6.4,5.121c-2.953,1.027-2.625,2.169-1.079,4.342,24.988,35.1,40.63,74.139,48.507,116.367a349.16,349.16,0,0,1,5.925,61.661c.013,1.973.142,3.946.217,5.919-.077,2.207-.007,4.43-.27,6.615-.312,2.591,1.009,5.389-.941,7.774l-21.953.009a4.193,4.193,0,0,1-4.579-2.712c-1.943-3.982-4.171-7.824-6.28-11.723-2.932-6.371-5.4-12.961-8.979-19.026a7.607,7.607,0,0,0-.3-1.934c-5.872-13.5-10.837-27.349-15.917-41.158-1.207-3.283-1.866-6.892-4.119-10.247-2.63,18.735-5.39,36.891-14.483,53.321-18.054.043-36.112-.105-54.16.263-4.67.095-6.559-1.293-7.8-5.737-2.53-9.075-3.338-18.36-4.492-27.619-.632-27.928,3.01-55.426,8.281-82.766,6.233-32.331,14.7-64.1,23.859-95.7C2739.5,680.809,2743.576,682.871,2747.014,681.411Z" transform="translate(-2420.701 -589.682)" fill="#ff7f63"/>
        <path id="Caminho_465" data-name="Caminho 465" d="M2772.966,780.369c1.153,9.259,1.962,18.544,4.492,27.619,1.241,4.444,3.13,5.831,7.8,5.737,18.048-.368,36.106-.219,54.161-.262l18.072.262a52.732,52.732,0,0,1-7.854,18.024c-7.764,10.322-18.33,16.489-30.548,19.736-23,6.112-46.706,8.527-70.065,12.77-8.9,1.614-17.81,3.141-26.715,4.707-3.844,0-7.549,1-11.312,1.582-4.085.63-5.11,2.43-2.68,5.733a198.292,198.292,0,0,0,13.95,17.619,19.192,19.192,0,0,0,1.2,1.985c13.482,17.365,26.919,34.765,40.544,52.017,1.676,2.121,1.071,3.016-.611,4.2-8.384,4.858-16.58,10.011-24.477,15.631a158.6,158.6,0,0,0-16.633,10.552c-7.907,4.949-15.895,9.774-23.673,14.914-2.693,1.778-3.725,1.227-5.232-1.389q-15.656-27.186-31.634-54.187c-.66-1.123-.765-2.962-2.732-2.944a7.817,7.817,0,0,0-1.475-4.423c-7.62-13.071-15.517-25.991-22.783-39.255-6.2-11.329-15.014-21.365-17.646-34.529-.065-.334-.476-.6-.726-.9,1.41-4.048.332-8.324,1.282-12.479,1.771-7.749,5.815-13.287,13.223-16.515q51.379-22.4,102.673-44.984c1.3-.573,2.5-1.375,3.753-2.069a15.165,15.165,0,0,0,5.777.844C2753.055,780.346,2763.011,780.366,2772.966,780.369Z" transform="translate(-2489.551 -508.22)" fill="#00c5ff"/>
        <path id="Caminho_466" data-name="Caminho 466" d="M2643.439,822.123c.249.3.66.562.726.9,2.632,13.164,11.441,23.2,17.646,34.529,7.266,13.264,15.162,26.184,22.782,39.255a7.811,7.811,0,0,1,1.475,4.423q-14.4,36.463-28.75,72.948c-1,2.549-2.277,1.7-3.878,1.048q-17.518-7.14-35.057-14.219c-1.322-.534-2.56-1.4-4.1-1.221-8.452-4.453-17.522-7.42-26.339-11l-5.987-2.741c20.151-40,38.3-80.79,59.361-120.133C2642,824.634,2642.73,823.385,2643.439,822.123Z" transform="translate(-2516.598 -474.766)" fill="#0076af"/>
        <path id="Caminho_467" data-name="Caminho 467" d="M2638.23,853.814c-.69-1.353,0-2.173,1.048-2.95,27.053-19.963,45.74-46.975,63.153-75.052,13.514-21.792,25.827-44.347,41.021-65.075,6.454-8.8,13.048-17.519,21.286-24.805-.424,21.927-5.5,42.956-12.3,63.65-7.145,21.747-16.717,42.572-24.4,64.114-3.7,10.4-7.28,20.847-8.593,31.9-19.074,13.73-40.532,21.265-63.589,24.963-4.143.664-5.057-2.419-7.347-3.991A86,86,0,0,0,2638.23,853.814Z" transform="translate(-2472.615 -581.737)" fill="#ff5630"/>
        <path id="Caminho_468" data-name="Caminho 468" d="M2683.6,850.219c1.315-11.048,4.889-21.5,8.594-31.9,7.679-21.542,17.251-42.367,24.4-64.114,6.8-20.693,11.878-41.722,12.3-63.65-.005-.523-.02-1.046-.016-1.569.034-5.69.036-5.667,5.792-6.187a14.077,14.077,0,0,0,2.583-.73l15.074-2.032c-9.163,31.6-17.627,63.373-23.86,95.7-5.271,27.341-8.913,54.838-8.281,82.767-9.956,0-19.912-.023-29.867.005a15.166,15.166,0,0,1-5.778-.844C2683.641,855.261,2683.752,852.724,2683.6,850.219Z" transform="translate(-2436.764 -586.364)" fill="#dce1e6"/>
        <path id="Caminho_469" data-name="Caminho 469" d="M2698.841,664.024c-3.684,1.382-4.753-.28-5.387-3.808-2.03-11.32,1.625-20.388,11.629-25.641a58.439,58.439,0,0,1,37.054-6.248c7.613,1.213,12.956,5.581,15.487,12.954a5.323,5.323,0,0,0,3.271,3.473c7.113,3.142,10.271,10.036,8.126,17.523-1.386,4.828-3.878,9.179-6.067,13.657-3.579,7.319-7.045,14.68-9.031,22.633-.26,1.041-.517,2.058-1.683,2.471-2.315.2-4.239-.227-4.344-3.073-.249-6.729-2.65-13.314-.67-20.234a6.9,6.9,0,0,0-3.623-8.37c-3.345-1.7-6.4-.907-8.973,1.689a23.324,23.324,0,0,0-3.266,3.921,4.28,4.28,0,0,1-4.521,2.325c-2.245-.243-2.2-2.1-2.571-3.473-1.441-5.269-4.794-8.07-10.138-9.159C2709.025,663.618,2703.953,663.874,2698.841,664.024Z" transform="translate(-2429.445 -627.574)" fill="#e6e6e6"/>
        <path id="Caminho_470" data-name="Caminho 470" d="M2697.053,648.051c5.112-.15,10.184-.405,15.292.637,5.344,1.089,8.7,3.89,10.138,9.159.375,1.375.326,3.23,2.571,3.473a4.28,4.28,0,0,0,4.521-2.325,23.292,23.292,0,0,1,3.266-3.921c2.572-2.6,5.628-3.387,8.973-1.689a6.9,6.9,0,0,1,3.623,8.37c-1.98,6.92.422,13.505.67,20.235.1,2.846,2.028,3.273,4.344,3.073q1.76,9.133,3.519,18.267c-3.439,1.46-7.517-.6-10.757,1.951q-7.534,1.012-15.073,2.03c.605-4.667,1.211-9.334,1.872-14.423-6.158,3.137-11.925,6.217-18.436,7.44-7.009,1.316-9.914-.066-12.551-6.769-4.19-10.659-4.241-21.815-3.414-33.01C2695.92,656.371,2696.562,652.217,2697.053,648.051Z" transform="translate(-2427.656 -611.602)" fill="#925b3a"/>
        <path id="Caminho_471" data-name="Caminho 471" d="M2626.588,914.981c7.367-1.714,8.14-.857,10.013,7.136,1.132,4.835.055,9.379-.29,14.037-.2,2.712-2.355,2.634-4.431,2.629q-23.3-.048-46.606-.018c-11.455,0-22.909-.059-34.362.043-2.716.025-4.887-.037-5.4-3.453-.642-4.294.6-7.222,3.739-8.568,2.025-.87,4.147-.77,6.2-.911,8.518-.588,15.689-4.912,23.241-8.136,8.09-3.455,16.077-7.154,24.083-10.8a8.3,8.3,0,0,1,3.446-.653c1.237,2.437,1.571,5.464,3.59,7.338C2613.417,916.968,2622,917.461,2626.588,914.981Z" transform="translate(-2545.35 -408.661)" fill="#e3e3e3"/>
        <path id="Caminho_472" data-name="Caminho 472" d="M2749.364,899.646a1.816,1.816,0,0,0,.036.391c2.423,8.054,2.311,7.854-5.278,12.13-16.082,9.061-32.033,18.356-48.047,27.537a2.031,2.031,0,0,0-1.293,1.789c-5.817,1.153-10.235,5.065-15.212,7.845s-5.431,2.949-8.07-.68c-2.845-3.912-2.5-7.036,1.157-9.822,2.387-1.818,4.849-3.533,7.26-5.321,1.361-1.009,2.835-1.957,3-3.9a9.627,9.627,0,0,0,1.785-1.5c5.712-7.84,11.234-15.821,17.13-23.518,2.716-3.546,4.27-8.267,9.049-9.975,2.623,1.066,3.955,4.494,7.326,4.135,5.636-.6,10.846-2.112,14.455-7,1.082-1.466,2.437-2.732,3.665-4.09,2.255-.255,3.821.816,5.449,2.307A41.887,41.887,0,0,1,2749.364,899.646Z" transform="translate(-2447.752 -423.31)" fill="#e3e3e3"/>
        <path id="Caminho_473" data-name="Caminho 473" d="M2655.579,779.96a86.038,86.038,0,0,1,10.28,12.75c-2.863,1.316-4.527,3.921-6.531,6.146-4.585,5.094-9.053,10.306-14.536,14.482-1.3.987-2.847,2.659-4.521,1.312-1.638-1.318-.934-3.38-.285-5.137.273-.737.716-1.409,1.01-2.139,1.382-3.421.727-4.875-3-5.594-5.087-.982-10.241-.348-15.371-.2-2.379.068-5.712,1.262-6.606-1.591s2.342-3.992,4.494-5.18a125.857,125.857,0,0,1,27.021-10.881A19.029,19.029,0,0,0,2655.579,779.96Z" transform="translate(-2489.963 -507.883)" fill="#935d3b"/>
        <path id="Caminho_474" data-name="Caminho 474" d="M2599.811,925.366c-4.59,2.48-13.172,1.987-16.779-1.359-2.019-1.875-2.353-4.9-3.59-7.338q5.237-11.806,10.474-23.607c8.816,3.58,17.887,6.547,26.338,11-4.092,6.369-9.284,11.886-13.869,17.874C2601.516,923.072,2600.668,924.222,2599.811,925.366Z" transform="translate(-2518.573 -419.046)" fill="#b28b65"/>
        <path id="Caminho_475" data-name="Caminho 475" d="M2770.927,847.25c5.176-9.545,8.242-19.317,3.239-29.96l21.956-.009c.4,2.376,2.112,3.894,3.675,5.474,7.8,7.9,16.569,14.625,25.5,21.159a21.606,21.606,0,0,1,3.068,2.466c2.551,2.716,2.183,5.587-1.012,7.547a18.652,18.652,0,0,1-18.487,1.171c-5.593-2.609-10.911-5.8-16.426-8.579-3.814-1.925-7.71-2.887-11.254.687-2.447,1.582-3.79,4.4-6.429,5.762-1.746.9-3.784,1.257-5.22,0-1.361-1.194.531-2.544.8-3.869A17.577,17.577,0,0,1,2770.927,847.25Z" transform="translate(-2369.644 -478.569)" fill="#925c3a"/>
        <path id="Caminho_476" data-name="Caminho 476" d="M2759.378,822.254l-18.073-.263c9.093-16.43,11.854-34.586,14.484-53.321,2.253,3.355,2.912,6.963,4.119,10.247,5.08,13.809,10.045,27.657,15.917,41.158a7.628,7.628,0,0,1,.3,1.934Q2767.749,822.13,2759.378,822.254Z" transform="translate(-2391.437 -516.75)" fill="#ff5630"/>
        <path id="Caminho_477" data-name="Caminho 477" d="M2709.5,876.185q1.575,2,3.148,3.992,5.79,8.243,11.58,16.485c-1.228,1.359-2.583,2.625-3.666,4.091-3.608,4.889-8.818,6.4-14.455,7-3.371.359-4.7-3.069-7.326-4.135q-6.877-5.9-13.759-11.8C2692.917,886.2,2701.112,881.043,2709.5,876.185Z" transform="translate(-2435.646 -432.302)" fill="#925c3a"/>
      </g>
    </g>
  </g>
</svg>
