<svg xmlns="http://www.w3.org/2000/svg" width="517.288" height="515.709" viewBox="0 0 517.288 515.709">
  <g id="Grupo_688" data-name="Grupo 688" transform="translate(-1005.229 -807.52)">
    <rect id="Retângulo_831" data-name="Retângulo 831" width="514.141" height="514.141" transform="translate(1008.376 807.52)" fill="#f4f4f4"/>
    <g id="Grupo_374" data-name="Grupo 374" transform="translate(1005.229 813.821)">
      <g id="Grupo_373" data-name="Grupo 373">
        <path id="Caminho_662" data-name="Caminho 662" d="M1210.764,1180.292c-1.749,3-4.684,2.117-7.261,2.11-49.461-.159-98.922-.42-148.385-.512-14.229-.025-28.46.445-42.692.606-2.067.022-4.245.549-6.207-.644.022-.959.067-1.918.067-2.878q-.052-80.7-.109-161.409c-.017-.763-.037-1.528-.055-2.293q.209-7.533.42-15.069c-.059-26.853-.261-53.705-.1-80.555.06-10.146,6.961-16.6,17.139-17.042,3.817-.164,7.641-.89,11.446.117,8.682-.238,14.438,3.474,17.131,12,1.26,3.988,3.442,7.676,5.054,11.565,6.57,15.829,12.755,31.832,19.743,47.475,4.113,9.207,6.851,19.062,12.547,27.551,1.585,7.38,5.183,14.028,7.815,21.018,3.971,10.546,11.046,16.1,23.3,14.955,8.926-.835,18.031-1.014,26.954-1.787,7.992-.691,16.053-.775,24.052-1.533,8.051-.765,16.326-3.153,24.539-.557a12.864,12.864,0,0,0,2.085.895c14.313,3.337,23.113,11.866,25.3,26.7a25.14,25.14,0,0,0,1.158,3.772,120.6,120.6,0,0,0,5.745,31.159q-2.844,15.029-5.685,30.063a52.219,52.219,0,0,0-3.432,12.837l-8.235,32.267.164,2.01C1211.177,1175.079,1210.958,1177.681,1210.764,1180.292Z" transform="translate(-1003.903 -673.223)" fill="#4d4d4d"/>
        <path id="Caminho_663" data-name="Caminho 663" d="M1319.572,1021.563c1.72,4.055,3.061,8.27,4.565,12.415.579,2.018,1.073,4.065,1.757,6.046,4,11.58,8.352,23.051,11.973,34.745,2.866,9.256,1.819,10.616-7.288,13.941l-39.859,10.367q-15.171-32.638-30.339-65.273c-2.286-5.678-4.383-11.458-8.414-17.345-1.637,6.476-4.016,11.687-4.194,17.469-5.782,16.227-9.331,33.085-13.772,49.679-3.019,11.277-2.649,11.674-14.07,11.727-1.151,0-2.3.047-3.454.072l-2.182.069q-19.677-.089-39.357-.181,2.84-15.029,5.685-30.061,2.874-15.644,5.745-31.288,3.414-16.587,6.816-33.177c.634-3.106-.976-3.511-3.628-3.206-6.849.793-13.769,1.071-20.573,2.127-7.532,1.171-15.3.519-22.646,3.014-8.213-2.6-16.488-.209-24.539.557-8,.758-16.06.842-24.052,1.533-8.923.773-18.028.952-26.954,1.787-12.256,1.148-19.331-4.408-23.3-14.955-2.632-6.99-6.23-13.638-7.815-21.021q37.52-22.614,75.009-45.281a15.794,15.794,0,0,1,8.68-2.328c16.56.047,33.117-.062,49.677-.114l16.135.231c1.8,1.049,3.755.495,5.641.507q38.832.272,77.67.495c10.111,1.844,16.132,8.168,19.39,17.591" transform="translate(-954.078 -642.512)" fill="#ff5630"/>
        <path id="Caminho_664" data-name="Caminho 664" d="M1218.238,1032.618c-16.559.052-33.117.161-49.677.114a15.8,15.8,0,0,0-8.68,2.328q-37.435,22.752-75.009,45.281c-5.7-8.486-8.434-18.341-12.547-27.548-6.988-15.643-13.173-31.646-19.743-47.475-1.613-3.889-3.794-7.577-5.054-11.565-2.694-8.531-8.449-12.243-17.131-12,1.337-1.111,1.416-2.624,1.4-4.2a33.243,33.243,0,0,1,.1-6.337c2.358-12.631-.73-21.955-11.028-31.383-15.653-14.333-15.027-42.157-1.024-58.573,8.605-10.089,17.884-19.6,26.741-29.479,2.989-3.33,5.849-3.635,9.57-1.168,6.712,4.448,13.615,8.608,20.439,12.887,6.255,5.688,14.05,9.045,20.921,13.789,10.479,7.234,22.538,12.156,31.559,21.525,3.506,7.1,4.488,14.3.544,21.557-1.165,2.142-.616,3.993.134,6.043q13.568,37.1,27,74.253c1.173,3.27,2.98,4.3,6.377,4.3,15.958.017,31.917.291,47.873.47Q1214.621,1019.024,1218.238,1032.618Z" transform="translate(-999.275 -752.248)" fill="#8ee6ff"/>
        <path id="Caminho_665" data-name="Caminho 665" d="M1045.768,886.126a126.873,126.873,0,0,1-13.56-27.782c-4.5-13.56,3.024-23.508,12.631-31.619a70.389,70.389,0,0,1,38.748-16.443c11.635-1.2,21.647,2.336,29.263,11.593.733.892,1.484,1.769,2.179,2.686,10.929,14.383,10.926,14.38,28.147,9.515,2.592-.733,5.171-1.548,7.805-2.067,1.521-.3,3.673-1.469,4.441.9.646,2-1.1,3.213-2.649,3.964-6.058,2.942-12.191,5.72-18.272,8.61-2.423,1.153-4.784,2.435-7.169,3.655-12.41,5.462-24.962,10.63-36.787,17.343l-16.165,7.062c-5.358-.43-9.237,2.11-12.36,6.163C1056.364,881.238,1051.727,885.358,1045.768,886.126Z" transform="translate(-967.154 -810.056)" fill="#ff7758"/>
        <path id="Caminho_666" data-name="Caminho 666" d="M1048.379,839.824q8.081-3.53,16.167-7.062c1.722,10.752,3.526,21.492,5.131,32.262.733,4.918,2.863,7.286,8.277,7.239,9.16-.08,18.327.594,27.491.952-1.258,4.764-.248,8.414,3.208,12.469,4.987,5.86,4.908,13.2,1.111,19.937-3.887,6.888-10.04,10.5-18.071,9.86-5.131-.41-10.206-1.491-15.3-2.271-15.611-5.181-19.316-10.171-19.676-26.684-.239-10.907-.733-21.826-.458-32.722C1056.423,847.222,1053.973,842.816,1048.379,839.824Z" transform="translate(-941.152 -776.337)" fill="#202020"/>
        <path id="Caminho_667" data-name="Caminho 667" d="M1095.785,883.578c-9.164-.358-18.331-1.032-27.491-.952-5.415.047-7.545-2.321-8.277-7.239-1.605-10.77-3.409-21.51-5.131-32.262,11.823-6.712,24.375-11.881,36.785-17.343,8.332,12.611,6.849,27.5,9.6,41.412.554,2.8.917,5.651,1.22,8.494C1103.247,882.758,1103.048,882.955,1095.785,883.578Z" transform="translate(-931.491 -786.701)" fill="#e1ac97"/>
        <path id="Caminho_668" data-name="Caminho 668" d="M1066.249,835.632c5.594,2.992,8.044,7.4,7.877,13.98-.276,10.9.219,21.816.458,32.722.36,16.513,4.065,21.5,19.676,26.684q-2.717,4.846-5.432,9.689c-9.023-9.368-21.082-14.291-31.561-21.525-6.871-4.744-14.666-8.1-20.921-13.789q2.788-6.821,5.579-13.652c10.492-3.449,14.624-10.6,11.667-20.657-.76-2.589.234-4.866.3-7.289C1057.012,837.742,1060.892,835.2,1066.249,835.632Z" transform="translate(-959.023 -772.145)" fill="#e1ac97"/>
        <path id="Caminho_669" data-name="Caminho 669" d="M1097.668,939.266q-3.619-13.594-7.236-27.181c19.616-.094,39.228-.214,58.841-.236a9.427,9.427,0,0,1,4.421,1.108c9.386,5.226,18.533,10.832,26.818,17.728-3.772,1.071-7.659.7-11.421.408-19.112-1.5-37.3,2.706-55.288,8.4Z" transform="translate(-878.705 -658.896)" fill="#e1ac97"/>
        <path id="Caminho_670" data-name="Caminho 670" d="M1099.837,985.174c17.986-5.7,36.176-9.9,55.288-8.4,3.762.3,7.648.663,11.421-.408,11.587.686,11.612.693,14.37-10.223,6.735-26.634,13.4-53.283,20.245-79.887.482-1.871-.44-5.417,3.064-5.149,3.414.261,5.516,2.855,5.882,6.19a18.231,18.231,0,0,1-.867,6.212q-10.553,41.934-21.177,83.853c-.86,3.417-1.839,6.679-4.915,8.817q-38.836-.239-77.67-.495C1103.592,985.669,1101.636,986.223,1099.837,985.174Z" transform="translate(-864.739 -704.573)" fill="#202020"/>
        <path id="Caminho_671" data-name="Caminho 671" d="M1053.147,838.084c-.065,2.423-1.059,4.7-.3,7.289,2.957,10.061-1.175,17.208-11.667,20.657,2.078-5.457.425-10.323-2.194-15.148-1.056-1.946-2.423-3.921-2.092-6.379C1042.854,843.737,1047.491,839.617,1053.147,838.084Z" transform="translate(-958.281 -768.434)" fill="#202020"/>
        <path id="Caminho_672" data-name="Caminho 672" d="M1005.229,1015.018c.388-.8.79-.788,1.208-.025Z" transform="translate(-1005.229 -506.58)" fill="#122e2f"/>
        <path id="Caminho_673" data-name="Caminho 673" d="M1135.514,992.444c-5.362,2.5-10.859,4.759-13.088,11.063-.75,2.12-2.957,1.307-4.55,1.334-8.382.149-16.766.184-25.151.261a52.21,52.21,0,0,1,3.432-12.837Z" transform="translate(-875.299 -539.48)" fill="#e1ac97"/>
        <g id="Grupo_371" data-name="Grupo 371" transform="translate(206.861 452.894)">
          <path id="Caminho_674" data-name="Caminho 674" d="M1204.087,1011.272l-113.116-.047c-2.085,1.956-2.3,4.557-2.5,7.169,1.516,1.7,3.554,1.21,5.422,1.21q53.146.007,106.295-.035C1202.606,1017.328,1204.529,1014.855,1204.087,1011.272Z" transform="translate(-1088.474 -964.219)" fill="#202020"/>
          <path id="Caminho_675" data-name="Caminho 675" d="M1201.951,1037.17c-.882-2.786-3.538-3.372-5.71-4.435-15.516-7.6-31.082-15.106-46.613-22.685-8.086-3.946-8.042-3.984-7.012-13.153a39.8,39.8,0,0,0,0-4.587l-2.179.07c-5.365,2.5-10.862,4.759-13.091,11.063-.75,2.12-2.957,1.307-4.55,1.334-8.382.149-16.766.184-25.151.261q-4.115,16.132-8.235,32.268.082,1,.167,2.01l113.118.047Z" transform="translate(-1087.081 -992.309)" fill="#202020"/>
        </g>
        <path id="Caminho_676" data-name="Caminho 676" d="M1102.142,967.576l-5.748,31.288" transform="translate(-869.85 -576.142)" fill="#7f7ec4"/>
        <path id="Caminho_677" data-name="Caminho 677" d="M1180.56,989.614q.772,3.22,1.541,6.443c-5.579.815-10.477,3.762-11.814,8.9-1.824,6.988-6.734,9.04-12.36,11.068-3.429,1.237-6.772,2.719-10.154,4.093q-3.537-10.071-7.075-20.138Q1160.633,994.8,1180.56,989.614Z" transform="translate(-804.06 -543.417)" fill="#e1ac97"/>
        <g id="Grupo_372" data-name="Grupo 372" transform="translate(342.074 452.641)">
          <path id="Caminho_678" data-name="Caminho 678" d="M1257.416,1011.256q-56.59-.007-113.178-.02c-2.3,2.117-.922,4.808-1.131,7.254,2.455,1.528,5.2,1.121,7.862,1.123q51,.041,102,.05C1255.483,1017.406,1257.774,1015.033,1257.416,1011.256Z" transform="translate(-1142.886 -963.949)" fill="#202020"/>
          <path id="Caminho_679" data-name="Caminho 679" d="M1254.955,1035.711c-1.166-2.035-3.427-2.3-5.278-3.166-12.964-6.031-25.966-11.985-38.952-17.966-5.449-2.381-10.762-5.174-16.383-7.04-7.9-2.624-14.068-6.61-15.884-15.332-5.579.815-10.476,3.762-11.814,8.9-1.824,6.988-6.734,9.04-12.36,11.068-3.429,1.237-6.771,2.719-10.154,4.093.209,7.477-2.015,14.915-.36,22.414a.945.945,0,0,1,.072.813q56.59.011,113.178.02A4.654,4.654,0,0,0,1254.955,1035.711Z" transform="translate(-1142.49 -992.207)" fill="#202020"/>
        </g>
      </g>
    </g>
  </g>
</svg>
