<svg xmlns="http://www.w3.org/2000/svg" width="518.168" height="515.848" viewBox="0 0 518.168 515.848">
  <g id="Grupo_687" data-name="Grupo 687" transform="translate(-1381.602 -454.504)">
    <rect id="Retângulo_830" data-name="Retângulo 830" width="517.213" height="515.848" transform="translate(1382.557 454.504)" fill="#555"/>
    <g id="Grupo_369" data-name="Grupo 369" transform="translate(1381.602 557.287)">
      <g id="Grupo_368" data-name="Grupo 368">
        <path id="Caminho_644" data-name="Caminho 644" d="M1547.841,882.863c-1.41,2.414-3.778,1.706-5.854,1.7-39.872-.128-79.745-.338-119.618-.412-11.471-.021-22.943.359-34.414.488-1.667.02-3.422.443-5-.518.018-.774.055-1.547.053-2.319q-.04-65.059-.087-130.116-.021-.925-.044-1.848.169-6.076.338-12.149c-.047-21.646-.211-43.292-.083-64.937.049-8.18,5.612-13.385,13.817-13.738,3.077-.132,6.16-.718,9.229.094,7-.193,11.637,2.8,13.808,9.676,1.016,3.216,2.775,6.19,4.076,9.323,5.3,12.761,10.281,25.661,15.914,38.272,3.316,7.421,5.524,15.366,10.115,22.209,1.278,5.949,4.178,11.307,6.3,16.944,3.2,8.5,8.9,12.979,18.784,12.054,7.195-.674,14.534-.816,21.729-1.44,6.442-.557,12.94-.625,19.389-1.237,6.491-.616,13.159-2.54,19.781-.448a10.2,10.2,0,0,0,1.68.719c11.538,2.692,18.632,9.566,20.392,21.528a20.181,20.181,0,0,0,.935,3.04,97.267,97.267,0,0,0,4.63,25.118q-2.29,12.118-4.584,24.234a42.244,42.244,0,0,0-2.766,10.349l-6.637,26.012.132,1.621C1548.173,878.658,1548,880.758,1547.841,882.863Z" transform="translate(-1381.084 -474.099)" fill="#858585"/>
        <path id="Caminho_645" data-name="Caminho 645" d="M1656.263,767.672c1.386,3.268,2.467,6.666,3.677,10.008.469,1.625.867,3.276,1.419,4.874,3.223,9.334,6.733,18.579,9.651,28.008,2.31,7.462,1.465,8.557-5.875,11.238L1633,830.157q-12.23-26.309-24.458-52.618c-1.844-4.58-3.533-9.237-6.784-13.984-1.319,5.22-3.236,9.423-3.379,14.084-4.661,13.081-7.523,26.671-11.1,40.048-2.434,9.091-2.135,9.41-11.341,9.452-.929,0-1.856.038-2.785.058l-1.758.056-31.728-.145q2.291-12.118,4.584-24.234l4.632-25.221q2.749-13.372,5.495-26.745c.51-2.5-.788-2.832-2.926-2.584-5.521.639-11.1.863-16.583,1.714-6.072.943-12.335.418-18.256,2.431-6.622-2.093-13.29-.169-19.781.448-6.449.612-12.947.68-19.389,1.237-7.195.624-14.535.766-21.729,1.44-9.88.925-15.583-3.555-18.784-12.055-2.122-5.637-5.023-10.995-6.3-16.945q30.246-18.23,60.467-36.5a12.719,12.719,0,0,1,7-1.876c13.348.038,26.7-.049,40.045-.094l13.006.189c1.451.844,3.027.4,4.547.408q31.306.22,62.612.4c8.152,1.486,13.006,6.585,15.632,14.181" transform="translate(-1361.627 -462.107)" fill="#ff5630"/>
        <path id="Caminho_646" data-name="Caminho 646" d="M1555.789,730.972c-13.349.045-26.7.132-40.045.094a12.719,12.719,0,0,0-7,1.876q-30.179,18.341-60.467,36.5c-4.591-6.841-6.8-14.786-10.115-22.208-5.633-12.611-10.618-25.511-15.914-38.272-1.3-3.133-3.06-6.107-4.076-9.323-2.172-6.875-6.811-9.869-13.808-9.676,1.077-.9,1.141-2.115,1.129-3.385a26.777,26.777,0,0,1,.083-5.11c1.9-10.181-.591-17.7-8.891-25.3-12.619-11.554-12.115-33.984-.826-47.218,6.938-8.132,14.418-15.8,21.557-23.763,2.408-2.685,4.715-2.93,7.714-.942,5.41,3.586,10.975,6.94,16.475,10.388,5.043,4.585,11.326,7.29,16.867,11.116,8.447,5.832,18.167,9.8,25.439,17.351,2.828,5.725,3.617,11.528.439,17.379-.939,1.725-.5,3.219.108,4.872q10.938,29.908,21.761,59.858c.948,2.636,2.4,3.466,5.142,3.469,12.865.014,25.729.234,38.593.379Q1552.872,720.016,1555.789,730.972Z" transform="translate(-1379.277 -504.959)" fill="#8ee6ff"/>
        <path id="Caminho_647" data-name="Caminho 647" d="M1430.105,588.856a102.259,102.259,0,0,1-10.93-22.393c-3.63-10.933,2.436-18.952,10.181-25.49a56.737,56.737,0,0,1,31.236-13.256c9.38-.968,17.45,1.883,23.59,9.347.591.718,1.195,1.426,1.758,2.166,8.811,11.593,8.808,11.59,22.689,7.668,2.089-.59,4.169-1.247,6.292-1.665,1.226-.242,2.96-1.184,3.579.726.521,1.607-.888,2.588-2.137,3.195-4.882,2.37-9.826,4.611-14.729,6.94-1.954.929-3.856,1.962-5.779,2.947-10,4.4-20.124,8.568-29.655,13.98q-6.517,2.846-13.033,5.694c-4.319-.348-7.445,1.7-9.962,4.967C1438.647,584.916,1434.91,588.236,1430.105,588.856Z" transform="translate(-1366.733 -527.533)" fill="#ff7758"/>
        <path id="Caminho_648" data-name="Caminho 648" d="M1443.017,565.546q6.517-2.848,13.033-5.694c1.391,8.668,2.843,17.327,4.138,26.008.591,3.963,2.307,5.873,6.671,5.835,7.385-.065,14.775.48,22.164.767-1.015,3.839-.2,6.782,2.584,10.052,4.022,4.723,3.956,10.644.9,16.071-3.133,5.554-8.091,8.467-14.567,7.949-4.135-.329-8.228-1.2-12.337-1.83-12.584-4.179-15.57-8.2-15.862-21.511-.191-8.792-.59-17.594-.369-26.378C1449.5,571.508,1447.526,567.956,1443.017,565.546Z" transform="translate(-1356.58 -514.366)" fill="#202020"/>
        <path id="Caminho_649" data-name="Caminho 649" d="M1485.25,596.509c-7.389-.287-14.779-.832-22.164-.767-4.365.038-6.08-1.872-6.671-5.835-1.295-8.681-2.747-17.339-4.138-26.008,9.531-5.411,19.651-9.576,29.655-13.98,6.716,10.166,5.521,22.171,7.739,33.381.448,2.26.74,4.556.985,6.848C1491.264,595.849,1491.1,596.005,1485.25,596.509Z" transform="translate(-1352.807 -518.413)" fill="#e1ac97"/>
        <path id="Caminho_650" data-name="Caminho 650" d="M1450,563.909c4.509,2.409,6.485,5.962,6.35,11.269-.221,8.784.177,17.586.369,26.378.291,13.31,3.278,17.332,15.862,21.511q-2.189,3.906-4.379,7.81c-7.275-7.552-16.995-11.52-25.442-17.352-5.541-3.825-11.824-6.53-16.867-11.116q2.248-5.5,4.5-11c8.457-2.783,11.789-8.543,9.406-16.654-.614-2.087.187-3.921.241-5.875C1442.55,565.608,1445.676,563.561,1450,563.909Z" transform="translate(-1363.559 -512.729)" fill="#e1ac97"/>
        <path id="Caminho_651" data-name="Caminho 651" d="M1508.705,694.518q-2.917-10.954-5.832-21.909c15.813-.076,31.622-.173,47.433-.191a7.607,7.607,0,0,1,3.564.894,139.255,139.255,0,0,1,21.618,14.292c-3.04.863-6.175.566-9.206.327-15.406-1.209-30.07,2.183-44.57,6.777Z" transform="translate(-1332.193 -468.505)" fill="#e1ac97"/>
        <path id="Caminho_652" data-name="Caminho 652" d="M1516.258,712.544c14.5-4.594,29.165-7.986,44.57-6.777,3.031.239,6.166.536,9.206-.327,9.342.553,9.361.557,11.586-8.242,5.428-21.47,10.8-42.953,16.321-64.4.387-1.507-.355-4.366,2.469-4.151,2.752.211,4.448,2.3,4.743,4.992a14.752,14.752,0,0,1-.7,5.006q-8.51,33.806-17.072,67.6c-.694,2.754-1.482,5.383-3.962,7.108q-31.308-.194-62.614-.4C1519.285,712.942,1517.709,713.388,1516.258,712.544Z" transform="translate(-1326.74 -486.342)" fill="#fff"/>
        <path id="Caminho_653" data-name="Caminho 653" d="M1439.744,567.427c-.053,1.953-.854,3.787-.241,5.875,2.383,8.111-.949,13.872-9.406,16.654,1.673-4.4.342-8.323-1.769-12.212-.851-1.569-1.953-3.161-1.686-5.141C1431.445,571.983,1435.182,568.663,1439.744,567.427Z" transform="translate(-1363.269 -511.28)" fill="#202020"/>
        <path id="Caminho_654" data-name="Caminho 654" d="M1381.6,818.89c.311-.642.636-.636.974-.02Z" transform="translate(-1381.602 -409.024)" fill="#122e2f"/>
        <path id="Caminho_655" data-name="Caminho 655" d="M1540.632,787.019c-4.324,2.014-8.756,3.837-10.551,8.919-.605,1.709-2.385,1.053-3.668,1.075-6.757.12-13.517.149-20.275.21a42.244,42.244,0,0,1,2.766-10.349Z" transform="translate(-1330.864 -421.872)" fill="#e1ac97"/>
        <g id="Grupo_366" data-name="Grupo 366" transform="translate(166.757 365.091)">
          <path id="Caminho_656" data-name="Caminho 656" d="M1593.286,813.9l-91.187-.038c-1.68,1.575-1.856,3.675-2.012,5.779,1.22,1.374,2.863.975,4.37.975q42.841.009,85.687-.027C1592.091,818.78,1593.64,816.787,1593.286,813.9Z" transform="translate(-1500.086 -775.968)" fill="#e6e6e6"/>
          <path id="Caminho_657" data-name="Caminho 657" d="M1592.141,823.1c-.711-2.246-2.851-2.719-4.6-3.576-12.509-6.128-25.058-12.177-37.577-18.287-6.518-3.182-6.483-3.212-5.654-10.6a31.736,31.736,0,0,0,0-3.7l-1.758.056c-4.324,2.014-8.756,3.837-10.551,8.919-.605,1.71-2.385,1.053-3.668,1.075-6.757.12-13.517.149-20.275.21l-6.637,26.012c.044.54.087,1.081.134,1.621l91.187.038Q1592.442,823.984,1592.141,823.1Z" transform="translate(-1499.542 -786.937)" fill="#e6e6e6"/>
        </g>
        <path id="Caminho_658" data-name="Caminho 658" d="M1515.992,751.735l-4.632,25.221" transform="translate(-1328.736 -436.189)" fill="#7f7ec4"/>
        <path id="Caminho_659" data-name="Caminho 659" d="M1606.552,783.1q.62,2.6,1.241,5.192c-4.5.66-8.446,3.036-9.524,7.174-1.469,5.635-5.428,7.289-9.963,8.923-2.766,1-5.459,2.193-8.186,3.3q-2.852-8.117-5.7-16.232Z" transform="translate(-1303.044 -423.409)" fill="#e1ac97"/>
        <g id="Grupo_367" data-name="Grupo 367" transform="translate(275.754 364.886)">
          <path id="Caminho_660" data-name="Caminho 660" d="M1669.855,813.893l-91.235-.017c-1.852,1.709-.745,3.877-.911,5.848,1.979,1.232,4.188.905,6.338.906q41.112.032,82.224.039C1668.3,818.85,1670.145,816.937,1669.855,813.893Z" transform="translate(-1577.531 -775.757)" fill="#e6e6e6"/>
          <path id="Caminho_661" data-name="Caminho 661" d="M1668.037,821.864c-.94-1.641-2.763-1.859-4.255-2.553-10.451-4.861-20.931-9.662-31.4-14.484-4.393-1.918-8.677-4.17-13.207-5.676-6.367-2.115-11.338-5.328-12.8-12.359-4.5.659-8.446,3.034-9.524,7.172-1.469,5.635-5.428,7.289-9.963,8.924-2.766,1-5.459,2.191-8.186,3.3.167,6.028-1.624,12.024-.29,18.07a.76.76,0,0,1,.058.654l91.236.017A3.749,3.749,0,0,0,1668.037,821.864Z" transform="translate(-1577.376 -786.792)" fill="#e6e6e6"/>
        </g>
      </g>
    </g>
  </g>
</svg>
