<svg xmlns="http://www.w3.org/2000/svg" width="639.633" height="495.139" viewBox="0 0 639.633 495.139">
  <g id="Grupo_689" data-name="Grupo 689" transform="translate(-3431.94 -669.195)">
    <rect id="Retângulo_808" data-name="Retângulo 808" width="495.139" height="495.139" transform="translate(3480.145 669.195)" fill="#555"/>
    <g id="Grupo_359" data-name="Grupo 359" transform="translate(3431.94 702.84)">
      <g id="Grupo_358" data-name="Grupo 358" transform="translate(0 0)">
        <path id="Caminho_599" data-name="Caminho 599" d="M3623.237,789.126l-19.91,12.335c-1.463-2.029-2.943-4.043-4.383-6.089-7.54-10.716-14.08-22.124-22.375-32.316-3.832-4.214-2.94-7.237,1.2-11.235a248.728,248.728,0,0,1,43.618-33.806c1.322-.234,2.633-.486,3.215-1.945l1.087-.655-.112.154c1.078.111,2.162.236,2.478-1.21l-.062.049,29.318-9.49c37.3-4.495,71.087,6.9,103.83,23-4.377,10.11-8.737,20.227-13.156,30.318a5.292,5.292,0,0,0-.031,4.946c3.378,6.732,6.587,13.552,9.859,20.338,2.7,9.469,7.048,18.41,9.034,28.111-19.2,6.972-38.378,14-57.6,20.906-18.669,6.708-37.379,13.293-56.073,19.933q-11.41-24.392-22.8-48.8c-.97-2.087-1.723-4.275-2.576-6.417q3.365-7.176,6.73-14.352C3630.33,784.824,3626.085,785.839,3623.237,789.126Z" transform="translate(-3282.443 -666.317)" fill="#ff5630"/>
        <path id="Caminho_600" data-name="Caminho 600" d="M3526.854,877.517c9.193-14.906,18.338-29.844,27.615-44.7,2.753-4.412,7.091-7.192,11.473-9.765,23.967-14.064,49.989-23.411,75.97-32.81,6.2-2.242,12.245-5.024,18.842-6.054,8.616,11.73,18.831,22.1,28.2,33.2,9.242,10.952,18.592,21.821,27.9,32.724-19.884,8.2-40.671,13.008-61.847,16.206-19.356,2.921-38.778,3.775-58.136.033-3.507-.679-4.3,1.178-5.383,3.646-5.2,11.8-11.569,22.877-20.366,32.423Q3548.983,889.965,3526.854,877.517Z" transform="translate(-3332.145 -581.934)" fill="#ffd788"/>
        <path id="Caminho_601" data-name="Caminho 601" d="M3648.217,879.292c-9.3-10.9-18.654-21.771-27.9-32.724-9.365-11.094-19.579-21.466-28.195-33.2,11.733-5.491,24.253-8.907,36.26-13.683,1.967-.782,3.911-1.61,5.866-2.416,18.691-6.641,37.4-13.226,56.07-19.934,19.225-6.907,38.405-13.933,57.6-20.906,3.432,9.092,4.116,18.536,3.615,28.129-.6,2.63-1.126,5.282-1.8,7.9-4.875,18.853-16.554,33.135-30.709,45.777-11.521,10.286-24.591,18.33-37.721,26.295C3670.329,869.562,3659.913,875.868,3648.217,879.292Z" transform="translate(-3263.519 -611.117)" fill="#0076af"/>
        <path id="Caminho_602" data-name="Caminho 602" d="M3642.6,732.753c8.3,10.192,14.835,21.6,22.375,32.316,1.441,2.045,2.922,4.06,4.384,6.089q-45.617,30.239-91.229,60.486c-1.612,1.069-3.147,2.251-4.72,3.379a84.383,84.383,0,0,0-29,24.837c-2.5,3.4-5.346,6.815-4.735,11.56-.585,4.214-1.011,8.444-2.44,12.507-4.265,12.126-12.236,13.912-21.094,4.667a46.815,46.815,0,0,1-4.792-15.374c-.594-21.667,8.541-38.819,23.752-53.7,27.2-26.615,57.228-49.728,87.643-72.4C3629.293,742.229,3635.978,737.533,3642.6,732.753Z" transform="translate(-3348.476 -636.013)" fill="#ffd788"/>
        <path id="Caminho_603" data-name="Caminho 603" d="M3700.038,794.808c13.333,26.231,23.895,53.491,30.549,82.2-.418,2.225,1.148,3.561,2.3,5.065q13.012,16.992,26.038,33.967a52.045,52.045,0,0,1-21.72,20.537c-8.5,4.2-16.464,3.44-23.78-3.018-7.653-6.751-13.941-14.647-19.821-22.894-17.766-24.921-32.435-51.694-46.837-78.617C3665.416,820.925,3684.213,809.993,3700.038,794.808Z" transform="translate(-3206.073 -570.768)" fill="#ffd788"/>
        <path id="Caminho_604" data-name="Caminho 604" d="M3669.031,771.227c-3.271-6.786-6.482-13.605-9.858-20.338a5.286,5.286,0,0,1,.031-4.946c4.418-10.091,8.777-20.208,13.154-30.318,14.209,6.339,28.49,12.522,42.6,19.084,7.258,3.377,11.6,9.447,14,17.1,7.669,24.506,15.65,48.916,23.141,73.475,2.153,7.053,5.4,12.231,12.846,14.407a24.632,24.632,0,0,1,10.452,6.249c5.422,5.408,4.5,10.844-2.456,14.487-13.831,7.248-31.031,3.916-40.457-8.519a188.959,188.959,0,0,1-32.474-67.4c-.863-3.338-1.866-4.829-5.352-5.473C3685.851,777.41,3677.421,774.337,3669.031,771.227Z" transform="translate(-3193.656 -654.022)" fill="#ffd788"/>
        <path id="Caminho_605" data-name="Caminho 605" d="M3594.817,801.226a46.847,46.847,0,0,0,4.794,15.374c-21.212,14.865-42.674,29.386-63.538,44.729-11.343,8.345-18.7,20.106-23.992,33.239-9.16,22.711-26.5,35.65-50.581,37.543-21.417,1.687-34.2-13.539-27.99-34.468,6.119-20.629,30.112-38.369,52.387-38.45a80.7,80.7,0,0,0,47.533-15.271C3553.79,829.546,3574.345,815.445,3594.817,801.226Zm-102.95,70.719-1.069-1.09c-6.28-1.249-11.924,2.435-18.056,2.318-3.417,1.4-7.122,2.33-9.32,5.715-.973.041-2.009-.035-2.323,1.241-3.625,1.594-6.629,3.822-7.935,7.779-3.258,5.046-8.59,8.866-9.188,15.491-1.822,3.616-1.318,6.964,1.161,10.085-.036,1.442.808,1.953,2.1,1.994,1.327,4.373,4.912,4.4,8.5,4.419,6.613,3.682,11.835-2.5,17.926-2.521,3.88-.626,7.545-1.6,9.288-5.709,1.079.172,2.123.281,2.364-1.2,4.147-.722,6.39-3.613,8.094-7.115,3.121-5.309,8.323-9.477,8.869-16.194.323-3.233.688-6.471-1.167-9.434a2.2,2.2,0,0,0-2.237-1.693c-1.053-3.642-3.774-4.413-7.107-4.135Z" transform="translate(-3431.941 -564.02)" fill="#4bd6ff"/>
        <path id="Caminho_606" data-name="Caminho 606" d="M3550.468,829.683q22.124,12.45,44.256,24.9c-18.263,22.672-36.661,45.232-55.874,67.114-9.295-.107-18.587-.285-27.878-.285-3.443,0-5.55-.73-3.5-4.591,2.1-3.971,1.093-6.589-3.073-8.093Q3527.43,869.2,3550.468,829.683Z" transform="translate(-3355.76 -534.099)" fill="#fcfcfd"/>
        <path id="Caminho_607" data-name="Caminho 607" d="M3716,903.677q-13.02-16.982-26.038-33.967c-1.148-1.5-2.716-2.839-2.3-5.065a622.253,622.253,0,0,1,40.5-53.915c1.226-1.465,2.638-2.776,3.964-4.158,4.889,4.987,9.5,10.294,14.741,14.877,5.735,5.016,8.376,10.45,5.162,17.827-10.176,21.193-20.88,42.1-33.886,61.736C3717.511,901.958,3716.712,902.791,3716,903.677Z" transform="translate(-3163.145 -558.4)" fill="#fcfcfd"/>
        <path id="Caminho_608" data-name="Caminho 608" d="M3711.771,820.741c-15.823,15.184-34.62,26.117-53.273,37.246-3.82,1.793-7.743,3.409-11.433,5.446-2.93,1.616-4.495.89-5.808-1.976-1.758-3.84-3.758-7.567-5.655-11.344,13.128-7.966,26.2-16.009,37.717-26.3,14.157-12.643,25.836-26.925,30.711-45.777.676-2.614,1.2-5.266,1.8-7.9,3.132,11.187,5.876,22.5,9.538,33.5C3717.629,810.436,3717.17,815.92,3711.771,820.741Z" transform="translate(-3217.807 -596.7)" fill="#004c78"/>
        <path id="Caminho_609" data-name="Caminho 609" d="M3537.34,868.214c4.167,1.5,5.178,4.121,3.073,8.092-2.045,3.861.062,4.591,3.5,4.591,9.295,0,18.586.178,27.881.285q-4.775,7.034-9.559,14.069-2.082,2.354-4.168,4.708l-85-.261c.928-7.348,6.534-11.98,15.563-12.782a98.836,98.836,0,0,0,26.729-5.7c3.684-1.405,7.421-2.977,9.922-5.955C3528.55,871.361,3532.236,868.719,3537.34,868.214Z" transform="translate(-3388.704 -493.587)" fill="#4bd6ff"/>
        <path id="Caminho_610" data-name="Caminho 610" d="M3729.2,849.6c3.214-7.377.574-12.811-5.162-17.827-5.24-4.583-9.853-9.89-14.741-14.877a156.375,156.375,0,0,1,16.673-20.155c4.283,3.959,8.584,7.894,12.848,11.872,12.952,12.084,24.9,25.23,38.523,36.6-5.731,5.871-7.857,6.232-15.118,2.755a39.212,39.212,0,0,0-17.875-4.146c-3,.062-6.005.714-7.091,3.953C3735.482,853.078,3732.709,852.653,3729.2,849.6Z" transform="translate(-3140.323 -568.73)" fill="#4bd6ff"/>
        <path id="Caminho_611" data-name="Caminho 611" d="M3610.95,725.786c-.581,1.458-1.893,1.711-3.216,1.945q-1.639-4.8-3.277-9.6c1.39-2.353,2.961-4.656,2.417-7.9-2.5,1.76-3.917,4.5-7.076,4.341a18.461,18.461,0,0,1-12.681-9.356,47.171,47.171,0,0,1,9.647-7.471,14.779,14.779,0,0,0,1.664,1.615c1.438,1.032,1.784,4.208,4.247,3,2.322-1.139-.077-3.024-.14-4.591-.052-1.235-.009-2.376,1.339-2.854a2.747,2.747,0,0,1,3.766,1.726c2.32,5.561,6.217,4.716,10.448,2.666l13.962,10.9c-5.755,4.829-13.3,7.381-17.709,13.913l.063-.049a2.587,2.587,0,0,0-2.479,1.21l.113-.152Z" transform="translate(-3268.785 -676.032)" fill="#ffd788"/>
        <path id="Caminho_612" data-name="Caminho 612" d="M3473.343,883.562l85,.26c-2,5.056-5.385,6.868-11.1,6.782-24.649-.371-49.306-.17-73.959-.18C3472.83,888.133,3472.441,885.843,3473.343,883.562Z" transform="translate(-3388.982 -477.45)" fill="#fcfcfd"/>
        <path id="Caminho_613" data-name="Caminho 613" d="M3768.8,847.98c-13.628-11.373-25.57-24.519-38.521-36.6-4.264-3.978-8.566-7.912-12.852-11.871,3.943-6.915,3.931-6.9,9.388-1.477,13.9,13.819,27.715,27.729,41.8,41.363C3771.948,842.626,3772.651,845.022,3768.8,847.98Z" transform="translate(-3131.778 -571.489)" fill="#fcfcfd"/>
        <path id="Caminho_614" data-name="Caminho 614" d="M3478.767,806.966a224.219,224.219,0,0,1-15.649,20.988c-.3-3.713-1.514-6.745-5.353-8.261-4.393-1.738-6.919,1.087-9.641,3.6a254.64,254.64,0,0,1,1.048-27.04A40.72,40.72,0,0,0,3478.767,806.966Z" transform="translate(-3414.944 -569.253)" fill="#b8b8b8"/>
        <path id="Caminho_615" data-name="Caminho 615" d="M3525.19,819c-.613-4.745,2.23-8.165,4.735-11.56a84.348,84.348,0,0,1,29-24.836c4.99,6.152,4.575,9.869-1.792,14.309C3546.513,804.32,3535.838,811.644,3525.19,819Z" transform="translate(-3333.985 -583.597)" fill="#4bd6ff"/>
        <path id="Caminho_616" data-name="Caminho 616" d="M3588.635,708.7c-3.725.23-7.248-.129-8.155-4.62-.813-4.043,1.649-5.526,5.093-7.137,3.971-1.854,7.3-5.077,10.908-7.719,7.2-5.281,9.75-4.948,15.518,2.039Q3600.32,699.976,3588.635,708.7Z" transform="translate(-3275.925 -685.596)" fill="#858585"/>
        <path id="Caminho_617" data-name="Caminho 617" d="M3478.3,809.207a40.715,40.715,0,0,1-29.6-10.717c-.907-4.361,2.316-4.54,4.959-4.308,8.462.743,16.39,3.289,23.177,8.573C3478.853,804.318,3481.714,806.191,3478.3,809.207Z" transform="translate(-3414.479 -571.493)" fill="#858585"/>
        <path id="Caminho_618" data-name="Caminho 618" d="M3584.376,705.793q11.681-8.721,23.364-17.437c2.414,1.358,4.539,2.936,4.6,6.074l-12.7,9.976a47.11,47.11,0,0,0-9.646,7.471C3586.429,711.416,3585.54,708.479,3584.376,705.793Z" transform="translate(-3271.668 -682.693)" fill="#202020"/>
        <path id="Caminho_619" data-name="Caminho 619" d="M3448.3,811.548c2.722-2.508,5.248-5.333,9.642-3.6,3.838,1.516,5.05,4.548,5.354,8.261-1.912,4.688-5.156,7.465-10.337,5.777C3447.9,820.347,3447.414,816.123,3448.3,811.548Z" transform="translate(-3415.115 -557.512)" fill="#ff5630"/>
        <path id="Caminho_620" data-name="Caminho 620" d="M3600.387,717.043c4.414-6.531,11.955-9.083,17.709-13.913,5.893-3.828,9.132-.708,11.609,4.423Z" transform="translate(-3254.832 -668.951)" fill="#e24816"/>
        <path id="Caminho_621" data-name="Caminho 621" d="M3591.819,701.293q6.352-4.988,12.7-9.976,4.31,5.77,8.622,11.541c-4.229,2.049-8.125,2.9-10.445-2.667a2.749,2.749,0,0,0-3.767-1.725c-1.348.478-1.39,1.618-1.341,2.853.065,1.567,2.465,3.453.141,4.591-2.462,1.2-2.809-1.972-4.249-3A15.032,15.032,0,0,1,3591.819,701.293Z" transform="translate(-3263.842 -679.58)" fill="#858585"/>
        <path id="Caminho_622" data-name="Caminho 622" d="M3598.066,748.648c2.849-3.287,7.093-4.3,11.294-6.218q-3.364,7.176-6.731,14.352Q3600.349,752.714,3598.066,748.648Z" transform="translate(-3257.273 -625.839)" fill="#190838"/>
        <path id="Caminho_623" data-name="Caminho 623" d="M3593.3,706.608c3.162.158,4.579-2.581,7.078-4.341.543,3.245-1.029,5.549-2.419,7.9C3596.838,708.413,3596.206,706.021,3593.3,706.608Z" transform="translate(-3262.287 -668.067)" fill="#190838"/>
        <path id="Caminho_624" data-name="Caminho 624" d="M3599.209,710.236a2.586,2.586,0,0,1,2.479-1.211C3601.372,710.472,3600.287,710.346,3599.209,710.236Z" transform="translate(-3256.071 -660.982)" fill="#e24816"/>
        <path id="Caminho_625" data-name="Caminho 625" d="M3598.734,710.184c.364-.217.725-.435,1.086-.653Q3599.278,709.854,3598.734,710.184Z" transform="translate(-3256.57 -660.429)" fill="#e24816"/>
        <path id="Caminho_626" data-name="Caminho 626" d="M3437.807,867.845c.6-6.624,5.93-10.444,9.193-15.488,4.248,4.351,5.98-1.235,8.6-2.445,3.838-1.771-.694-3.471-.671-5.336.313-1.276,1.35-1.2,2.324-1.239,1.169,1.869,2.092,4.907,4.925,2.055,2.1-2.117,8.1-2.31,4.391-7.773,6.134.117,11.778-3.567,18.056-2.32q.535.545,1.071,1.091l-.1-.047c1.864,2.248,1.506,8.308,7.106,4.136a2.2,2.2,0,0,1,2.24,1.693c-7.364,4.1-.238,6.413,1.163,9.435-.546,6.716-5.748,10.885-8.87,16.192-3.729-5.219-5.3.876-7.755,1.67-3.554,1.151-1.642,3.512-.338,5.447-.242,1.479-1.288,1.37-2.368,1.2-1.3-2.617-3.223-3.528-5.251-1.064-1.647,2-7.4,1.778-4.034,6.776-6.09.018-11.313,6.2-17.926,2.521-2.488-2.137-2.294-9.434-8.5-4.419-1.29-.041-2.134-.551-2.1-1.994,3.507-1.469,4.836-3.461,1.7-6.661C3439.633,870.211,3438.758,868.992,3437.807,867.845Zm40.948-17.973c1.093.1,8.32-5.432,7.892-6.109-1.708-2.7-2.757-6.971-5.875-7.272-2.933-.285-5.639,2.843-7.866,5.219C3472.327,842.325,3477.794,849.782,3478.755,849.872Zm-19.7,1.65c-1.677.115-8.155,5.165-8.186,5.916-.041,1.149,5.647,8.288,6.194,7.814,2.5-2.156,7.414-2.728,7.15-6.484C3464.026,856.084,3461.417,853.134,3459.055,851.522Zm7.169,10.616c-2.381,2.744-7.589,3.009-7.1,6.868.325,2.55,2.463,7.022,5.833,6.755,2.708-.215,7.086-2.622,7.076-5.58C3472.023,867.324,3469.154,864.276,3466.224,862.138Zm9.526,6.49c1.275.01,7.988-5.727,7.471-6.447-1.833-2.544-2.7-6.983-6-6.944-2.835.034-5.793,2.653-7.639,5.42C3469.089,861.391,3474.879,868.625,3475.75,868.629Zm18.827-13.808c-2.128-2.845-3.176-6.2-6.245-7.736-1.181-.589-8.06,5.5-7.47,6.37,1.772,2.607,2.712,7.11,6.036,6.95C3489.612,860.271,3492.542,857.561,3494.577,854.82ZM3455.683,869.6c-3.021,2.534-6.337,3.516-7.98,6.45-.546.97,5.015,7.976,6.029,7.97,1.353-.008,7.962-5.631,7.458-6.452C3459.539,874.884,3457.624,872.364,3455.683,869.6Zm-1.322-2.4c-2.837-2.9-3.534-7.8-7.06-7.6a9.214,9.214,0,0,0-7.221,5.781c-.523,1.45,5.315,7.874,6.312,7.276C3449.083,871.043,3451.588,869.125,3454.361,867.195Zm13.579-9.235c2.68-2.568,7.373-3.366,7.3-6.445-.065-2.844-2.531-7.5-5.805-7.361-2.541.107-7.349,2.355-7.06,6.111C3462.582,852.956,3465.288,855.8,3467.94,857.959Z" transform="translate(-3425.771 -528.466)" fill="#e3eaf5"/>
        <path id="Caminho_627" data-name="Caminho 627" d="M3450.221,839.689c-.022,1.865,4.509,3.565.669,5.336-2.621,1.21-4.354,6.8-8.6,2.446C3443.593,843.511,3446.6,841.283,3450.221,839.689Z" transform="translate(-3421.061 -523.579)" fill="#555"/>
        <path id="Caminho_628" data-name="Caminho 628" d="M3456.6,836.3c3.708,5.463-2.292,5.656-4.394,7.773-2.833,2.852-3.755-.187-4.923-2.055C3449.483,838.629,3453.187,837.7,3456.6,836.3Z" transform="translate(-3415.805 -527.144)" fill="#555"/>
        <path id="Caminho_629" data-name="Caminho 629" d="M3458.828,859.2c-1.3-1.934-3.217-4.3.336-5.446,2.452-.794,4.027-6.889,7.755-1.67C3465.218,855.585,3462.976,858.475,3458.828,859.2Z" transform="translate(-3405.455 -512.749)" fill="#555"/>
        <path id="Caminho_630" data-name="Caminho 630" d="M3452.81,862.058c-3.366-5,2.385-4.772,4.035-6.776,2.026-2.464,3.945-1.553,5.25,1.065C3460.355,860.454,3456.692,861.432,3452.81,862.058Z" transform="translate(-3411.089 -508.702)" fill="#555"/>
        <path id="Caminho_631" data-name="Caminho 631" d="M3438.366,851.032c.95,1.147,1.827,2.365,2.865,3.423,3.132,3.2,1.8,5.192-1.7,6.661C3437.05,858,3436.546,854.648,3438.366,851.032Z" transform="translate(-3426.332 -511.652)" fill="#555"/>
        <path id="Caminho_632" data-name="Caminho 632" d="M3439.4,857.8c6.2-5.016,6.01,2.281,8.5,4.419C3444.3,862.209,3440.722,862.178,3439.4,857.8Z" transform="translate(-3424.101 -506.347)" fill="#555"/>
        <path id="Caminho_633" data-name="Caminho 633" d="M3468.505,847.952c-1.4-3.022-8.527-5.334-1.164-9.435C3469.194,841.481,3468.827,844.719,3468.505,847.952Z" transform="translate(-3398.17 -524.811)" fill="#555"/>
        <path id="Caminho_634" data-name="Caminho 634" d="M3468.209,839.838c-5.6,4.173-5.245-1.888-7.105-4.136C3464.435,835.426,3467.157,836.2,3468.209,839.838Z" transform="translate(-3401.278 -527.824)" fill="#555"/>
        <path id="Caminho_635" data-name="Caminho 635" d="M3461.7,836.259q-.537-.548-1.072-1.091Q3461.167,835.715,3461.7,836.259Z" transform="translate(-3401.775 -528.333)" fill="#0a41ac"/>
        <path id="Caminho_636" data-name="Caminho 636" d="M3460.787,849.139c-.96-.09-6.427-7.547-5.849-8.163,2.228-2.376,4.934-5.5,7.865-5.219,3.119.3,4.169,4.572,5.876,7.272C3469.107,843.706,3461.881,849.241,3460.787,849.139Z" transform="translate(-3407.804 -527.732)" fill="#555"/>
        <path id="Caminho_637" data-name="Caminho 637" d="M3452.361,843.075c2.36,1.613,4.97,4.563,5.159,7.246.263,3.756-4.653,4.328-7.15,6.485-.548.474-6.235-6.666-6.194-7.814C3444.2,848.241,3450.683,843.19,3452.361,843.075Z" transform="translate(-3419.077 -520.019)" fill="#555"/>
        <path id="Caminho_638" data-name="Caminho 638" d="M3455.314,848.25c2.93,2.137,5.8,5.186,5.809,8.044.011,2.958-4.367,5.364-7.076,5.58-3.37.266-5.507-4.205-5.833-6.755C3447.725,851.259,3452.933,850.994,3455.314,848.25Z" transform="translate(-3414.864 -514.578)" fill="#555"/>
        <path id="Caminho_639" data-name="Caminho 639" d="M3459.479,858.278c-.869,0-6.659-7.238-6.17-7.972,1.845-2.767,4.8-5.385,7.639-5.42,3.3-.039,4.169,4.4,6,6.944C3467.468,852.55,3460.757,858.288,3459.479,858.278Z" transform="translate(-3409.503 -518.115)" fill="#555"/>
        <path id="Caminho_640" data-name="Caminho 640" d="M3472.528,848.669c-2.034,2.741-4.966,5.451-7.681,5.584-3.321.16-4.263-4.343-6.035-6.95-.589-.866,6.29-6.958,7.469-6.37C3469.352,842.465,3470.4,845.823,3472.528,848.669Z" transform="translate(-3403.724 -522.313)" fill="#555"/>
        <path id="Caminho_641" data-name="Caminho 641" d="M3450.631,851.887c1.939,2.765,3.856,5.285,5.509,7.968.5.82-6.106,6.444-7.46,6.452-1.012.007-6.575-7-6.03-7.97C3444.294,855.4,3447.609,854.421,3450.631,851.887Z" transform="translate(-3420.72 -510.754)" fill="#555"/>
        <path id="Caminho_642" data-name="Caminho 642" d="M3453.215,854.614c-2.774,1.931-5.28,3.849-7.97,5.457-1,.6-6.836-5.826-6.315-7.276a9.22,9.22,0,0,1,7.224-5.781C3449.68,846.81,3450.378,851.717,3453.215,854.614Z" transform="translate(-3424.625 -515.885)" fill="#555"/>
        <path id="Caminho_643" data-name="Caminho 643" d="M3455.354,853.291c-2.649-2.162-5.356-5-5.564-7.695-.289-3.756,4.52-6,7.059-6.111,3.278-.139,5.74,4.517,5.807,7.361C3462.726,849.924,3458.032,850.723,3455.354,853.291Z" transform="translate(-3413.186 -523.797)" fill="#555"/>
      </g>
    </g>
  </g>
</svg>
